<svg xmlns="http://www.w3.org/2000/svg" width="28" height="26" viewBox="0 0 28 26">
    <path fill="#8E9AA9" fill-rule="nonzero" d="M24 4h-9c-.71 0-1.39-.287-1.885-.795l-1.95-2A4 4 0 0 0 8.29 0H4a4 4 0 0 0-4 4v18a4 4 0 0 0 4 4h20a4 4 0 0 0 4-4V8a4 4 0 0 0-4-4zM7 10.5a2.465 2.465 0 0 1 1.5-.5h11a2.465 2.465 0 0 1 1.5.5.84.84 0 0 1-.07 1.405l-6.665 3.905a.5.5 0 0 1-.53 0L7.08 11.895A.84.84 0 0 1 7 10.5zm15 9a2.5 2.5 0 0 1-2.5 2.5h-11A2.5 2.5 0 0 1 6 19.5v-4.65a.725.725 0 0 1 1.095-.625l5.635 3.31c.79.465 1.77.465 2.56 0l5.635-3.31A.725.725 0 0 1 22 14.85v4.65z"/>
</svg>
