<?xml version="1.0" encoding="UTF-8"?>
<svg width="34px" height="34px" viewBox="0 0 34 34" version="1.1" xmlns="http://www.w3.org/2000/svg" xmlns:xlink="http://www.w3.org/1999/xlink">
    <!-- Generator: sketchtool 50.2 (55047) - http://www.bohemiancoding.com/sketch -->
    <title>18ED2310-592C-4FAE-929A-35EEA70AC165</title>
    <desc>Created with sketchtool.</desc>
    <defs></defs>
    <g id="Ogrenci-Dashboard" stroke="none" stroke-width="1" fill="none" fill-rule="evenodd">
        <g id="02-Parola-9" transform="translate(-833.000000, -553.000000)" fill="#2ECC71" fill-rule="nonzero">
            <g id="Group" transform="translate(741.000000, 553.000000)">
                <path d="M109,1.07850237e-15 C99.6111593,-5.39251183e-16 92,7.61115925 92,17 C92,26.3888407 99.6111593,34 109,34 C118.388841,34 126,26.3888407 126,17 C126,12.4913197 124.208934,8.16730315 121.020815,4.97918472 C117.832697,1.79106629 113.50868,5.39251183e-16 109,1.07850237e-15 Z M117.707155,15.2951085 L108.457567,23.873287 C107.987077,24.3101101 107.348642,24.5555556 106.6829,24.5555556 C106.017157,24.5555556 105.378722,24.3101101 104.908233,23.873287 L100.292845,19.5929213 C99.7560907,19.0965805 99.4901283,18.401761 99.569287,17.7026459 C99.6484457,17.0035307 100.064235,16.3751041 100.700454,15.9929942 C101.719747,15.4000774 103.047114,15.5478962 103.886075,16.3477528 L104.814169,17.2084785 C105.074952,17.4496215 105.221522,17.7771079 105.221522,18.1186377 C105.221522,18.4601676 105.074952,18.787654 104.814169,19.028797 C104.571031,19.2556317 104.571031,19.6219781 104.814169,19.8488127 C105.058758,20.0743017 105.453778,20.0743017 105.698367,19.8488127 L106.689171,18.9299299 L114.113925,12.0499399 C114.952886,11.2500834 116.280253,11.1022646 117.299546,11.6951813 C117.935765,12.0772913 118.351554,12.7057179 118.430713,13.404833 C118.509872,14.1039481 118.243909,14.7987677 117.707155,15.2951085 Z" id="Shape-Copy-7"></path>
            </g>
        </g>
    </g>
</svg>