<svg xmlns="http://www.w3.org/2000/svg" width="44" height="44" viewBox="0 0 44 44">
    <g fill="none" fill-rule="evenodd">
        <circle cx="22" cy="22" r="22" fill="#FFF"/>
        <g fill="#82589F" fill-rule="nonzero">
            <path d="M21.869 32.094H11.473a.5.5 0 0 1 0-1c.843 0 1.529-.687 1.529-1.529l-.004-9.215c0-.021.001-.042.004-.062l.002-1.855a2.528 2.528 0 0 1 2.525-2.525h10.396a.5.5 0 0 1 0 1 1.53 1.53 0 0 0-1.529 1.527l-.002 11.133a2.528 2.528 0 0 1-2.525 2.526zm-8.383-1h8.383a1.53 1.53 0 0 0 1.525-1.529l.002-11.131c0-.573.192-1.103.516-1.527h-8.383c-.841 0-1.525.686-1.525 1.527l-.002 1.917a.43.43 0 0 1-.004.062l.004 9.152c0 .574-.192 1.104-.516 1.529z"/>
            <path d="M30.225 26.932h-6.328a.5.5 0 0 1-.5-.5v-7.998a2.53 2.53 0 0 1 2.529-2.527h.248a2.529 2.529 0 0 1 2.525 2.527l-.002 5.973c0 .841.686 1.525 1.527 1.525a.5.5 0 0 1 .001 1zm-5.829-1h3.815a2.51 2.51 0 0 1-.515-1.525l.002-5.973c0-.842-.685-1.527-1.525-1.527h-.248a1.53 1.53 0 0 0-1.529 1.527v7.498z"/>
            <path d="M30.473 26.932h-.248a2.529 2.529 0 0 1-2.527-2.525v-5.886a.5.5 0 0 1 .5-.5h6.33a.5.5 0 0 1 0 1c-.841 0-1.525.686-1.525 1.527l.002 3.857a2.533 2.533 0 0 1-2.532 2.527zm-1.776-7.911v5.385c0 .841.686 1.525 1.527 1.525h.248a1.53 1.53 0 0 0 1.531-1.525l-.002-3.848c0-.578.192-1.111.516-1.537h-3.82zM15.637 23.5h6.125v1h-6.125zM15.637 25.77h6.125v1h-6.125zM15.637 28.041h3.303v1h-3.303zM21.262 22.586h-5.125a.5.5 0 0 1-.5-.5v-2.875a.5.5 0 0 1 .5-.5h5.125a.5.5 0 0 1 .5.5v2.875a.5.5 0 0 1-.5.5zm-4.625-1h4.125v-1.875h-4.125v1.875z"/>
        </g>
    </g>
</svg>
