<?xml version="1.0" encoding="UTF-8"?>
<svg width="16px" height="16px" viewBox="0 0 16 16" version="1.1" xmlns="http://www.w3.org/2000/svg" xmlns:xlink="http://www.w3.org/1999/xlink">
    <!-- Generator: Sketch 49 (51002) - http://www.bohemiancoding.com/sketch -->
    <title>Group 10</title>
    <desc>Created with Sketch.</desc>
    <defs>
        <circle id="path-1" cx="8" cy="8" r="8"></circle>
        <filter x="-128.1%" y="-115.6%" width="356.2%" height="356.2%" filterUnits="objectBoundingBox" id="filter-2">
            <feOffset dx="0" dy="2" in="SourceAlpha" result="shadowOffsetOuter1"></feOffset>
            <feGaussianBlur stdDeviation="6.5" in="shadowOffsetOuter1" result="shadowBlurOuter1"></feGaussianBlur>
            <feColorMatrix values="0 0 0 0 0.468570564   0 0 0 0 0.593480011   0 0 0 0 0.697571216  0 0 0 0.16052423 0" type="matrix" in="shadowBlurOuter1"></feColorMatrix>
        </filter>
    </defs>
    <g id="Ders-alanları" stroke="none" stroke-width="1" fill="none" fill-rule="evenodd">
        <g id="Oval-10-Copy-10">
            <use fill="black" fill-opacity="1" filter="url(#filter-2)" xlink:href="#path-1"></use>
            <use fill="#00C9FF" fill-rule="evenodd" xlink:href="#path-1"></use>
        </g>
        <path d="M4.10384615,8.85 C4.03461538,8.78 4,8.675 4,8.605 C4,8.535 4.03461538,8.43 4.10384615,8.36 L4.58846154,7.87 C4.72692308,7.73 4.93461538,7.73 5.07307692,7.87 L5.10769231,7.905 L7.01153846,9.97 C7.08076923,10.04 7.18461538,10.04 7.25384615,9.97 L11.8923077,5.105 L11.9269231,5.105 L11.9269231,5.105 C12.0653846,4.965 12.2730769,4.965 12.4115385,5.105 L12.8961538,5.595 C13.0346154,5.735 13.0346154,5.945 12.8961538,6.085 L12.8961538,6.085 L7.35769231,11.895 C7.28846154,11.965 7.21923077,12 7.11538462,12 C7.01153846,12 6.94230769,11.965 6.87307692,11.895 L4.17307692,8.955 L4.10384615,8.85 L4.10384615,8.85 Z" id="Shape-Copy-3" fill="#FFFFFF" fill-rule="nonzero"></path>
    </g>
</svg>