<svg xmlns="http://www.w3.org/2000/svg" width="46" height="46" viewBox="0 0 46 46">
    <g fill="none" fill-rule="evenodd">
        <circle cx="23" cy="23" r="23" fill="#FFF"/>
        <path fill="#82589F" fill-rule="nonzero" d="M13.184 31.47h3.254c2.318 0 4.057 1.285 5.058 3.135a.55.55 0 0 0 .482.292.538.538 0 0 0 .54-.532v-14.95c0-1.574-.64-3.083-1.78-4.195a6.16 6.16 0 0 0-4.3-1.737h-3.254c-1.149 0-2.08.909-2.08 2.03V29.44c0 1.121.931 2.03 2.08 2.03zm1.432-12.882c0-.218.089-.427.247-.582a.854.854 0 0 1 .596-.24h.979c1.022 0 2.031.222 2.955.65a.83.83 0 0 1 .491.75v.077a.823.823 0 0 1-.407.697.866.866 0 0 1-.822.031 5.253 5.253 0 0 0-2.217-.492h-.98a.854.854 0 0 1-.595-.241.812.812 0 0 1-.247-.582v-.068zm0 3.426c0-.218.089-.427.247-.581a.854.854 0 0 1 .596-.241h.979c1.022 0 2.031.223 2.955.65a.83.83 0 0 1 .491.75v.077a.823.823 0 0 1-.407.697.866.866 0 0 1-.822.031 5.253 5.253 0 0 0-2.217-.492h-.98a.854.854 0 0 1-.595-.241.812.812 0 0 1-.247-.581v-.069zm0 3.426c0-.218.089-.427.247-.581a.854.854 0 0 1 .596-.241h.979c1.022 0 2.031.223 2.955.65a.83.83 0 0 1 .491.75v.077a.823.823 0 0 1-.407.697.866.866 0 0 1-.822.032 5.253 5.253 0 0 0-2.217-.493h-.98a.833.833 0 0 1-.842-.822v-.069zm18.993-11.957c1.149 0 2.08.909 2.08 2.03V29.44c0 1.121-.931 2.03-2.08 2.03h-3.254c-2.318 0-4.056 1.285-5.053 3.135a.55.55 0 0 1-.868.136.525.525 0 0 1-.16-.376v-14.95c0-3.277 2.723-5.932 6.081-5.932h3.254zm-1.432 12.026v-.069a.812.812 0 0 0-.247-.581.854.854 0 0 0-.596-.241h-.979c-1.022 0-2.03.22-2.954.647a.83.83 0 0 0-.492.75v.076a.823.823 0 0 0 .407.697c.25.148.561.16.822.031a5.253 5.253 0 0 1 2.217-.488h.98a.833.833 0 0 0 .842-.822zm0-3.426v-.069a.812.812 0 0 0-.247-.581.854.854 0 0 0-.596-.241h-.979c-1.022-.001-2.03.22-2.954.646a.83.83 0 0 0-.492.75v.077a.823.823 0 0 0 .407.697c.25.148.561.16.822.031a5.253 5.253 0 0 1 2.217-.488h.98a.833.833 0 0 0 .842-.822zm0-3.427v-.068a.812.812 0 0 0-.247-.582.854.854 0 0 0-.596-.24h-.979c-1.022-.001-2.03.22-2.954.646a.83.83 0 0 0-.492.75v.077a.823.823 0 0 0 .407.697c.25.148.561.16.822.03a5.253 5.253 0 0 1 2.217-.487h.98a.833.833 0 0 0 .842-.823z"/>
    </g>
</svg>
