<svg xmlns="http://www.w3.org/2000/svg" width="20" height="20" viewBox="0 0 20 20">
    <path fill="#8E9AA9" fill-rule="nonzero" d="M2.674 10.734l.712.755c.492.52.48 1.338-.026 1.844l-2.681-2.68a.568.568 0 0 1-.226-.227l-.342-.341.342-.342a.568.568 0 0 1 .226-.226l2.68-2.68c.507.506.519 1.323.027 1.844l-.712.754h4.454c.39 0 .65.26.65.65s-.26.65-.65.65H2.674zm8.06 6.703l.755-.712a1.324 1.324 0 0 1 1.844.026l-2.68 2.681a.568.568 0 0 1-.227.226l-.341.342-.342-.342a.568.568 0 0 1-.226-.226l-2.68-2.68a1.324 1.324 0 0 1 1.844-.027l.754.712v-4.454c0-.39.26-.65.65-.65s.65.26.65.65v4.454zm6.592-8.171l-.712-.755a1.324 1.324 0 0 1 .026-1.844l2.681 2.68c.096.053.173.13.226.227l.342.341-.342.342a.568.568 0 0 1-.226.226l-2.68 2.68a1.324 1.324 0 0 1-.027-1.844l.712-.754h-4.454c-.39 0-.65-.26-.65-.65s.26-.65.65-.65h4.454zm-8.06-6.703l-.755.712c-.52.492-1.338.48-1.844-.026L9.347.568a.568.568 0 0 1 .227-.226L9.915 0l.342.342c.096.053.173.13.226.226l2.68 2.68a1.324 1.324 0 0 1-1.844.027l-.754-.712v4.454c0 .39-.26.65-.65.65s-.65-.26-.65-.65V2.563z"/>
</svg>
