<svg xmlns="http://www.w3.org/2000/svg" width="18" height="18" viewBox="0 0 18 18">
    <g fill="none" fill-rule="evenodd">
        <path fill="#4285F4" d="M17.308 9.032c0-.627-.056-1.229-.16-1.807H8.83v3.416h4.752a4.062 4.062 0 0 1-1.762 2.665v2.216h2.854c1.67-1.537 2.633-3.801 2.633-6.49z"/>
        <path fill="#34A853" d="M8.83 17.662c2.385 0 4.384-.791 5.845-2.14l-2.854-2.216c-.79.53-1.802.843-2.99.843-2.3 0-4.247-1.553-4.941-3.64H.94v2.288a8.827 8.827 0 0 0 7.89 4.865z"/>
        <path fill="#FBBC05" d="M3.89 10.509a5.308 5.308 0 0 1-.277-1.678c0-.582.1-1.148.277-1.678V4.865H.94A8.827 8.827 0 0 0 0 8.831c0 1.425.341 2.774.94 3.966l2.95-2.288z"/>
        <path fill="#EA4335" d="M8.83 3.512c1.297 0 2.461.446 3.377 1.32L14.739 2.3C13.21.875 11.211 0 8.831 0A8.827 8.827 0 0 0 .939 4.865l2.95 2.288c.695-2.087 2.642-3.64 4.942-3.64z"/>
    </g>
</svg>
