<svg xmlns="http://www.w3.org/2000/svg" width="14" height="14" viewBox="0 0 14 14">
    <path fill="#f1be0f" fill-rule="nonzero" d="M13.736 5.9a.808.808 0 0 0-.455-1.401l-3.406-.493a.808.808 0 0 1-.617-.461L7.735.473a.808.808 0 0 0-1.47 0L4.741 3.545a.808.808 0 0 1-.617.45l-3.403.504a.808.808 0 0 0-.458 1.4L2.727 8.3c.196.188.285.461.237.728l-.58 3.387a.808.808 0 0 0 1.191.865l3.045-1.6a.808.808 0 0 1 .762 0l3.045 1.6a.808.808 0 0 0 1.191-.865l-.577-3.39a.808.808 0 0 1 .238-.727L13.736 5.9z"/>
</svg>
