<svg xmlns="http://www.w3.org/2000/svg" width="14" height="13" viewBox="0 0 14 13">
    <path fill="#5D6D81" fill-rule="nonzero" d="M1.156 2.348A1.13 1.13 0 0 1 0 1.191C0 .529.495 0 1.156 0H12.81C13.471 0 14 .53 14 1.19c0 .662-.528 1.158-1.189 1.158H1.156zM12.81 5.226c.66 0 1.189.53 1.189 1.19 0 .662-.528 1.158-1.189 1.158H1.156A1.13 1.13 0 0 1 0 6.417c0-.662.495-1.191 1.156-1.191H12.81zm0 5.259c.66 0 1.189.496 1.189 1.158 0 .661-.528 1.19-1.189 1.19H1.156c-.66 0-1.156-.529-1.156-1.19a1.13 1.13 0 0 1 1.156-1.158H12.81z"/>
</svg>
