<svg xmlns="http://www.w3.org/2000/svg" width="51" height="51" viewBox="0 0 51 51">
    <g fill="none" fill-rule="evenodd" transform="translate(1 1)">
        <circle cx="24.5" cy="24.5" r="24.5" fill="#FFF" stroke="#E4ECF0"/>
        <path fill="#E4ECF0" fill-rule="nonzero" d="M24.612 0C38.037 0 49 11.223 49 24.966c0 6.185-2.237 11.682-5.817 16.034-1.79-1.603-3.804-2.52-6.265-2.52h-6.041c-.672 0-1.119-1.145-1.343-3.435 5.594-.23 9.621-3.436 9.845-3.665.224-.23.447-.458.447-.916s-.223-.687-.447-.917c-.895-.916-3.356-8.245-5.146-14.659 0 0 0-.229-.224-.229-1.119-2.977-4.027-4.81-6.936-4.81h-5.146c-3.132 0-5.817 2.062-6.936 4.81 0 0 0 .23-.224.23-1.79 6.413-4.251 13.971-5.146 14.658-.224.23-.447.459-.447.917s.223.687.447.916c.224.229 4.251 3.436 10.068 3.665-.223 2.29-.447 3.435-1.342 3.435h-6.265c-2.237 0-4.475.917-6.265 2.52C2.237 36.648 0 30.922 0 24.966.224 11.223 11.187 0 24.612 0z"/>
    </g>
</svg>
