<svg xmlns="http://www.w3.org/2000/svg" width="49" height="49" viewBox="0 0 49 49">
    <g fill="none" fill-rule="evenodd">
        <circle cx="24.5" cy="24.5" r="24.5" fill="#FFF"/>
        <path fill="#E4ECF0" fill-rule="nonzero" d="M24.5 0C37.986 0 49 11.286 49 25.106a25.829 25.829 0 0 1-5.844 16.353c-1.798-2.764-4.945-5.298-9.44-6.68l-.225-.23c-2.023-.691-3.147-2.764-3.597-6.45l1.35-1.15c.898-.922 1.573-2.074 1.573-3.456v-5.758-.46-.461c0-4.376-3.822-7.831-8.317-7.831-4.72 0-8.317 3.455-8.317 7.83v6.68c0 1.382.675 2.534 1.574 3.455l1.349 1.152c-.45 3.685-1.574 5.758-3.597 6.449 0 0-.225 0-.225.23-4.495 1.382-7.642 3.685-9.44 6.68A25.829 25.829 0 0 1 0 25.106C0 11.286 11.014 0 24.5 0z"/>
    </g>
</svg>
