<svg xmlns="http://www.w3.org/2000/svg" width="51" height="51" viewBox="0 0 51 51">
    <g fill="none" fill-rule="evenodd" transform="translate(1 1)">
        <circle cx="24.5" cy="24.5" r="24.5" fill="#FFF" stroke="#E4ECF0"/>
        <path fill="#E4ECF0" d="M0 24.36C.072 11.528 10.008 1.033 22.61.072a24.833 24.833 0 0 1 3.78 0C38.992 1.033 48.928 11.528 49 24.36c-.034 5.947-2.275 11.45-5.844 15.64-1.798-2.667-4.945-5.111-9.44-6.444l-.225-.223c-2.023-.666-3.147-2.666-3.597-6.222L31.244 26c.898-.889 1.573-2 1.573-3.333V17.11v-.444-.445c0-4.222-3.822-7.555-8.317-7.555-4.72 0-8.317 3.333-8.317 7.555v6.445c0 1.333.675 2.444 1.574 3.333l1.349 1.111c-.45 3.556-1.574 5.556-3.597 6.222 0 0-.225 0-.225.223C10.79 34.889 7.642 37.11 5.844 40 2.275 35.81.034 30.307 0 24.36z"/>
    </g>
</svg>
