<svg xmlns="http://www.w3.org/2000/svg" width="20" height="22" viewBox="0 0 20 22">
    <path fill="#FFF" fill-rule="nonzero" d="M9.807 18.071c-3.976 0-7.2-3.166-7.2-7.071s3.224-7.071 7.2-7.071c3.977 0 7.2 3.166 7.2 7.071s-3.223 7.071-7.2 7.071zm.8-16.5a.793.793 0 0 1-.8.786.793.793 0 0 1-.8-.786V.786c0-.434.358-.786.8-.786.442 0 .8.352.8.786v.785zm0 19.643a.793.793 0 0 1-.8.786.793.793 0 0 1-.8-.786v-.785c0-.434.358-.786.8-.786.442 0 .8.352.8.786v.785zM.4 6.573a.778.778 0 0 1-.263-1.057.808.808 0 0 1 1.063-.303l.692.393a.778.778 0 0 1 .264 1.056.808.808 0 0 1-1.064.303L.4 6.572zm17.32 9.82a.778.778 0 0 1-.263-1.055.808.808 0 0 1 1.063-.303l.692.393a.778.778 0 0 1 .264 1.056.808.808 0 0 1-1.064.303l-.692-.393zM.107 16.5A.778.778 0 0 1 .4 15.428l.692-.393a.808.808 0 0 1 1.064.303.778.778 0 0 1-.264 1.056l-.692.393A.808.808 0 0 1 .107 16.5zM18.52 6.965a.808.808 0 0 1-1.063-.303.778.778 0 0 1 .263-1.056l.692-.393a.808.808 0 0 1 1.064.303.778.778 0 0 1-.264 1.056l-.692.393z"/>
</svg>
