<svg xmlns="http://www.w3.org/2000/svg" width="104" height="104" viewBox="0 0 104 104">
    <g fill="none" fill-rule="nonzero">
        <circle cx="52" cy="52" r="52" fill="#E6F3FF"/>
        <g transform="translate(33 33)">
            <path fill="#007EFF" d="M30.081 3a2.778 2.778 0 0 0-2.78 2.775 2.778 2.778 0 0 0 2.78 2.776 3.354 3.354 0 0 1 3.35 3.344V27.41a3.354 3.354 0 0 1-3.35 3.345h-7.827a2.776 2.776 0 0 0-1.756-2.487 2.784 2.784 0 0 0-2.985.613l-2.697 2.686a2.773 2.773 0 0 0 0 3.927l2.69 2.692a2.784 2.784 0 0 0 2.994.62 2.776 2.776 0 0 0 1.754-2.5h7.827c4.922-.004 8.911-3.983 8.919-8.896V11.895C38.992 6.983 35.003 3.004 30.081 3z"/>
            <path fill="#00C9FF" d="M24.185 7.398a2.78 2.78 0 0 0 0-3.932L21.463.777a2.776 2.776 0 0 0-4.7 1.876H8.901C3.989 2.66.008 6.643 0 11.559v15.535C.008 32.009 3.989 35.992 8.902 36a2.778 2.778 0 0 0 0-5.558 3.355 3.355 0 0 1-3.347-3.348V11.559a3.355 3.355 0 0 1 3.347-3.348h7.86a2.779 2.779 0 0 0 4.701 1.875l2.722-2.688z"/>
            <circle cx="12.5" cy="19.5" r="1.5" fill="#007EFF"/>
            <circle cx="19.5" cy="19.5" r="1.5" fill="#00C9FF"/>
            <circle cx="26.5" cy="19.5" r="1.5" fill="#007EFF"/>
        </g>
    </g>
</svg>
