<svg xmlns="http://www.w3.org/2000/svg" width="58" height="18" viewBox="0 0 58 18">
    <path fill="#2E77BC" fill-rule="evenodd" d="M51.363 14.51c.316.318.486.72.486 1.402 0 1.423-.914 2.088-2.554 2.088h-3.166v-1.419h3.153c.309 0 .527-.04.664-.164a.58.58 0 0 0 .192-.432.561.561 0 0 0-.198-.437c-.124-.101-.296-.147-.579-.147-1.52-.05-3.424.046-3.424-2.049 0-.96.62-1.97 2.324-1.97h3.26v1.409h-2.983c-.296 0-.488.01-.651.12-.178.106-.244.265-.244.475 0 .25.15.42.355.493.172.059.356.075.633.075l.875.023c.883.021 1.488.17 1.857.533zm6.15 0c.317.318.487.72.487 1.402C58 17.335 57.086 18 55.446 18H52.28v-1.419h3.153c.309 0 .527-.04.664-.164a.58.58 0 0 0 .192-.432.561.561 0 0 0-.198-.437c-.124-.101-.296-.147-.579-.147-1.52-.05-3.424.046-3.424-2.049 0-.96.62-1.97 2.324-1.97h3.26v1.409h-2.983c-.296 0-.488.01-.651.12-.178.106-.244.265-.244.475 0 .25.15.42.355.493.172.059.356.075.633.075l.875.023c.883.021 1.488.17 1.857.533zM39.73 11.382h5.426v1.369h-3.808v1.203h3.714v1.35h-3.714v1.317l3.808.006V18h-5.426v-6.618zm-2.054 3.542c.361.13.658.363.796.556.23.323.263.625.27 1.208V18h-1.633v-.828c0-.398.04-.988-.262-1.295-.238-.238-.6-.294-1.193-.294h-1.738V18h-1.633v-6.618h3.753c.823 0 1.423.035 1.956.312.513.302.836.715.836 1.47a1.855 1.855 0 0 1-1.152 1.76zm-.982-.823c.21-.124.336-.352.336-.635 0-.283-.125-.489-.336-.596-.197-.113-.486-.12-.776-.12h-2.002v1.487h1.975c.317 0 .585-.01.803-.136zm-5.175-.539c0 1.839-1.41 2.218-2.83 2.218h-2.03V18h-3.16l-2.001-2.19-2.08 2.19h-6.44v-6.618h6.539l2 2.17 2.068-2.17h5.195c1.29 0 2.74.347 2.74 2.18zm-2.758.874c.625 0 1.013-.301 1.013-.874 0-.578-.407-.811-.994-.811h-2.12v1.685h2.1zm-3.72 2.962v-5.306l-2.496 2.61 2.496 2.696zm-6.446-.777l1.857-1.942-1.779-1.928h-4.076v1.203h3.57v1.35h-3.57v1.317h3.998zM53.68 6.617h-2.304L48.295 1.65v4.967h-3.31l-.633-1.476h-3.377l-.614 1.476h-1.903c-.79 0-1.79-.17-2.357-.732-.571-.562-.869-1.323-.869-2.526 0-.982.178-1.879.877-2.587C36.634.243 37.457 0 38.578 0h1.574v1.418H38.61c-.593 0-.928.086-1.251.392-.278.278-.468.805-.468 1.498 0 .71.145 1.22.448 1.554.25.262.704.342 1.132.342h.73L41.494 0h2.436l2.752 6.259V0h2.476l2.857 4.608V0h1.666v6.617zM43.74 3.76l-1.113-2.637-1.106 2.637h2.219zM32.777 0h1.659v6.617h-1.659V0zm-.943 1.782c0 1.055-.723 1.6-1.145 1.764.355.131.66.364.804.557.23.329.269.623.269 1.214v1.3h-1.64l-.006-.835c0-.398.04-.97-.257-1.289-.237-.233-.6-.283-1.184-.283h-1.746v2.407h-1.625V0h3.74c.83 0 1.442.022 1.967.317.515.296.823.727.823 1.465zm-2.126.93c.211-.108.335-.34.335-.63 0-.283-.13-.488-.341-.585-.192-.107-.488-.12-.771-.12h-2.002v1.47h1.975c.317 0 .58-.004.804-.136zm-5.531 3.905h-5.431V0h5.43v1.378h-3.804V2.57h3.714v1.357h-3.714v1.321h3.805v1.369zm-6.643 0h-1.666l-.006-5.182-2.358 5.182h-1.427L9.713 1.43v5.187H6.407L5.782 5.14H2.397l-.631 1.476H0L2.911 0h2.416l2.765 6.264V0h2.653l2.128 4.489L14.827 0h2.707v6.617zM5.194 3.76L4.083 1.124 2.976 3.761h2.219z"/>
</svg>
