<svg xmlns="http://www.w3.org/2000/svg" width="104" height="104" viewBox="0 0 104 104">
    <g fill="none" fill-rule="nonzero">
        <circle cx="52" cy="52" r="52" fill="#E6F3FF"/>
        <path fill="#007EFF" d="M69.522 32H35.478A3.478 3.478 0 0 0 32 35.478v29.651a3.478 3.478 0 0 0 3.478 3.478h7.724a2.196 2.196 0 0 0 1.581-.695L46 66.594c.41-.438.981-.69 1.581-.696h9.833c.6.006 1.171.258 1.581.696l1.215 1.318c.412.44.987.691 1.59.695h7.723A3.478 3.478 0 0 0 73 65.13V35.478A3.478 3.478 0 0 0 69.522 32zm-30.2 33.906a1.464 1.464 0 1 1 0-2.929 1.464 1.464 0 0 1 0 2.929zm29.285-5.909c0 .712-.577 1.289-1.288 1.289H37.68a1.289 1.289 0 0 1-1.288-1.289V37.681c0-.711.577-1.288 1.288-1.288H67.32c.711 0 1.288.577 1.288 1.288v22.316z"/>
        <path fill="#00C9FF" d="M38.355 73h28.29a1.603 1.603 0 0 0 1.574-1.918 1.223 1.223 0 0 0-1.2-1.01H37.981a1.223 1.223 0 0 0-1.201.98A1.603 1.603 0 0 0 38.355 73zM55.011 48.063l-3.975-2.636a.93.93 0 0 0-1.465.777v5.278a.93.93 0 0 0 1.465.776l3.997-2.643a.93.93 0 0 0-.022-1.552z"/>
    </g>
</svg>
