<svg xmlns="http://www.w3.org/2000/svg" width="104" height="104" viewBox="0 0 104 104">
    <g fill="none" fill-rule="nonzero">
        <circle cx="52" cy="52" r="52" fill="#E6F3FF"/>
        <path fill="#007EFF" d="M67.848 46.78c-.582-8.346-7.101-15.02-15.362-15.726-9.328-.737-16.793 6.327-18.01 15.303l-1.347 9.084a1.46 1.46 0 0 0 .323 1.15c.267.32.656.508 1.07.516h.852c.61.002 1.145.413 1.309 1.006l1.521 5.506a3.665 3.665 0 0 0 3.546 2.702h5.623c.536 0 .995.389 1.088.922l1.004 5.82c.092.54.554.934 1.096.937h16.298a.887.887 0 0 0 .675-.31.904.904 0 0 0 .207-.719L66.03 60.862a14.714 14.714 0 0 1 .822-7.11 17.035 17.035 0 0 0 .997-6.973z"/>
        <path fill="#FFF" d="M59.173 49.43a.928.928 0 0 1-.7.9l-1.166.291a6.17 6.17 0 0 1-.282.676l.624 1.083a.935.935 0 0 1-.137 1.136l-1.135 1.144a.916.916 0 0 1-1.127.138l-1.028-.622a6.022 6.022 0 0 1-.67.284l-.29 1.175a.923.923 0 0 1-.891.707h-1.623a.923.923 0 0 1-.89-.707l-.29-1.175a6.022 6.022 0 0 1-.67-.284l-1.029.622a.916.916 0 0 1-1.127-.138l-1.135-1.144a.935.935 0 0 1-.145-1.136l.617-1.037a6.17 6.17 0 0 1-.282-.676l-1.165-.292a.928.928 0 0 1-.693-.944v-1.659a.928.928 0 0 1 .7-.898l1.166-.292c.08-.23.174-.456.282-.676l-.625-1.005a.935.935 0 0 1 .137-1.137l1.135-1.144a.916.916 0 0 1 1.127-.138l1.029.622c.217-.108.441-.203.67-.284l.297-1.19a.923.923 0 0 1 .891-.707h1.608c.422.002.79.293.89.707l.29 1.174c.23.081.453.176.67.284l1.029-.622a.916.916 0 0 1 1.127.139l1.135 1.144c.312.3.376.78.152 1.152l-.617 1.036c.108.22.202.445.282.676l1.166.292a.927.927 0 0 1 .693.867v1.659zm-7.497 1.582a2.28 2.28 0 0 0 2.27-2.288 2.28 2.28 0 0 0-2.27-2.288 2.28 2.28 0 0 0-2.27 2.288 2.28 2.28 0 0 0 2.27 2.288z"/>
    </g>
</svg>
