<svg xmlns="http://www.w3.org/2000/svg" xmlns:xlink="http://www.w3.org/1999/xlink" width="24" height="24" viewBox="0 0 24 24">
    <defs>
        <path id="a" d="M14.829 21.764a3.854 3.854 0 0 1-5.658 0 .2.2 0 0 1 .146-.334h5.366a.2.2 0 0 1 .146.334zm7.574-4.073l.318.318a.95.95 0 0 1 .279.671v.228a.95.95 0 0 1-.95.95H1.95a.95.95 0 0 1-.95-.954v-.224c0-.252.1-.493.279-.671l.318-.318a8.692 8.692 0 0 0 2.546-6.148V8.86a7.855 7.855 0 0 1 8.124-7.855c4.27.145 7.59 3.79 7.59 8.06v2.478c0 2.306.916 4.517 2.546 6.148zM13 16.324v-.83a.709.709 0 0 0-.182-.478.595.595 0 0 0-.438-.198h-.76a.595.595 0 0 0-.438.198.709.709 0 0 0-.182.479v.829c0 .373.278.676.62.676h.76a.595.595 0 0 0 .438-.198.709.709 0 0 0 .182-.478zm.915-10.571v.005a.712.712 0 0 0-.15-.532A.594.594 0 0 0 13.3 5h-2.6a.594.594 0 0 0-.466.226.712.712 0 0 0-.149.532l.85 7.38c.038.336.3.589.61.59h.91c.31-.001.572-.254.61-.59l.85-7.385z"/>
    </defs>
    <g fill="none" fill-rule="evenodd">
        <mask id="b" fill="#fff">
            <use xlink:href="#a"/>
        </mask>
        <use fill="#FFF" fill-rule="nonzero" xlink:href="#a"/>
        <g fill="#FFF" mask="url(#b)">
            <rect width="24" height="24" rx="3"/>
        </g>
    </g>
</svg>
