<svg xmlns="http://www.w3.org/2000/svg" xmlns:xlink="http://www.w3.org/1999/xlink" width="24" height="24" viewBox="0 0 24 24">
    <defs>
        <path id="a" d="M13.829 20.764a3.854 3.854 0 0 1-5.658 0 .2.2 0 0 1 .146-.334h5.366a.2.2 0 0 1 .146.334zm7.574-4.073l.318.318a.95.95 0 0 1 .279.671v.228a.95.95 0 0 1-.95.95H.95a.95.95 0 0 1-.95-.954v-.224c0-.252.1-.493.279-.671l.318-.318a8.692 8.692 0 0 0 2.546-6.148V7.86A7.855 7.855 0 0 1 11.267.005c4.27.145 7.59 3.79 7.59 8.06v2.478c0 2.306.916 4.517 2.546 6.148zm-6.474-7.766a.935.935 0 0 0-.004-1.332l-.346-.345a.935.935 0 0 0-1.32 0L10.666 9.84a.935.935 0 0 1-1.32 0l-.554-.554a.935.935 0 0 0-1.32 0l-.346.346a.935.935 0 0 0 0 1.32l1.372 1.355a2.16 2.16 0 0 0 3.048 0l3.383-3.382z"/>
    </defs>
    <g fill="none" fill-rule="evenodd" transform="translate(1 1)">
        <mask id="b" fill="#fff">
            <use xlink:href="#a"/>
        </mask>
        <use fill="#F38080" fill-rule="nonzero" xlink:href="#a"/>
        <g fill="#FFF" mask="url(#b)">
            <rect width="24" height="24" rx="3" transform="translate(-1 -1)"/>
        </g>
    </g>
</svg>
