<svg xmlns="http://www.w3.org/2000/svg" width="22" height="22" viewBox="0 0 22 22">
    <path fill="#838F9F" fill-rule="nonzero" d="M17.826 8.714H4.174C3.526 8.714 3 9.24 3 9.89v6.54A2.571 2.571 0 0 0 5.571 19H16.43A2.571 2.571 0 0 0 19 16.429v-6.54c0-.649-.526-1.175-1.174-1.175zm-10.54 6.672a.757.757 0 0 1-.757.757H6.33a.757.757 0 0 1-.76-.757v-.197a.757.757 0 0 1 .758-.76h.197a.757.757 0 0 1 .76.757v.2zm0-3.429a.757.757 0 0 1-.757.757H6.33a.757.757 0 0 1-.76-.757v-.197A.757.757 0 0 1 6.33 11h.197a.757.757 0 0 1 .76.757v.2zm4.571 3.429a.757.757 0 0 1-.757.757h-.197a.757.757 0 0 1-.76-.757v-.197a.757.757 0 0 1 .757-.76h.197a.757.757 0 0 1 .76.757v.2zm0-3.429a.757.757 0 0 1-.757.757h-.197a.757.757 0 0 1-.76-.757v-.197A.757.757 0 0 1 10.9 11h.197a.757.757 0 0 1 .76.757v.2zm4.572 3.429a.757.757 0 0 1-.758.757h-.197a.757.757 0 0 1-.76-.757v-.197a.757.757 0 0 1 .757-.76h.198a.757.757 0 0 1 .76.757v.2zm0-3.429a.757.757 0 0 1-.758.757h-.197a.757.757 0 0 1-.76-.757v-.197a.757.757 0 0 1 .757-.76h.198a.757.757 0 0 1 .76.757v.2zm1.531-7.814c.574 0 1.04.465 1.04 1.04V7a.571.571 0 0 1-.571.571H3.57A.571.571 0 0 1 3 7V5.183c0-.575.466-1.04 1.04-1.04h.103v.571a.571.571 0 1 0 1.143 0v-.571a1.143 1.143 0 1 1 2.285 0h5.26c.251 0 .455.203.455.454v.117a.571.571 0 0 0 1.143 0v-.571a1.143 1.143 0 0 1 2.285 0h1.246z"/>
</svg>
