<svg xmlns="http://www.w3.org/2000/svg" width="104" height="104" viewBox="0 0 104 104">
    <g fill="none" fill-rule="nonzero">
        <circle cx="52" cy="52" r="52" fill="#E6F3FF"/>
        <path fill="#007EFF" d="M72.08 39.65H32.92c-2.165 0-3.92 1.738-3.92 3.882v22.16c0 2.144 1.755 3.882 3.92 3.882h15.107c.74-.005 8.193 0 8.93 0h15.107a3.94 3.94 0 0 0 2.782-1.131A3.863 3.863 0 0 0 76 65.692v-22.16c0-1.03-.413-2.017-1.148-2.745a3.939 3.939 0 0 0-2.771-1.137z"/>
        <path fill="#FFF" d="M50.05 55.069h-.748a1.83 1.83 0 0 0-1.838 1.82v5.146c0 .537-.44.972-.982.972h-8.107a.987.987 0 0 1-.695-.285.968.968 0 0 1-.287-.687v-5.146a1.83 1.83 0 0 0-1.838-1.82h-.747a.512.512 0 0 1-.439-.306.503.503 0 0 1 .078-.525l6.714-6.65a1.825 1.825 0 0 1 2.56 0l6.714 6.65c.126.15.154.358.072.536a.512.512 0 0 1-.458.295zM57.536 46.3h11.75a1.67 1.67 0 0 1 1.678 1.662 1.67 1.67 0 0 1-1.678 1.662h-11.75a1.67 1.67 0 0 1-1.679-1.662 1.67 1.67 0 0 1 1.679-1.662zM57.536 52.95h11.75a1.67 1.67 0 0 1 1.678 1.662 1.67 1.67 0 0 1-1.678 1.662h-11.75a1.67 1.67 0 0 1-1.679-1.662 1.67 1.67 0 0 1 1.679-1.663z"/>
        <path fill="#FFF" d="M62.571 62.924h-5.035a1.67 1.67 0 0 1-1.679-1.662 1.67 1.67 0 0 1 1.679-1.663h5.035a1.67 1.67 0 0 1 1.679 1.663 1.67 1.67 0 0 1-1.679 1.662zM69.286 62.924a1.67 1.67 0 0 1-1.679-1.662 1.67 1.67 0 0 1 1.679-1.663 1.67 1.67 0 0 1 1.678 1.663c.023.455-.143.9-.46 1.23-.318.33-.758.516-1.218.515v-.083z" opacity=".583"/>
        <path fill="#00C9FF" d="M60.893 36.325a1.67 1.67 0 0 0 1.678-1.663A1.67 1.67 0 0 0 60.893 33H44.107a1.67 1.67 0 0 0-1.678 1.662 1.67 1.67 0 0 0 1.678 1.663h16.786z"/>
    </g>
</svg>
