<svg xmlns="http://www.w3.org/2000/svg" width="14" height="14" viewBox="0 0 14 14">
    <path fill="#8E9AA9" fill-rule="evenodd" d="M5.047 7.08L.483 11.62c-.527.529-.527 1.366 0 1.851.263.265.614.397.921.397.351 0 .659-.132.922-.397L6.89 8.887l4.696 4.716c.264.265.615.397.922.397.307 0 .658-.132.921-.397.527-.529.527-1.366 0-1.85L8.777 7.08l4.828-4.848c.527-.53.527-1.367 0-1.852-.527-.485-1.36-.529-1.843 0L6.934 5.23 2.238.469c-.526-.53-1.36-.53-1.843 0-.527.528-.527 1.366 0 1.85L5.047 7.08z"/>
</svg>
