<svg xmlns="http://www.w3.org/2000/svg" width="18" height="14" viewBox="0 0 18 14">
    <path fill="#FFF" fill-rule="nonzero" d="M17.297 4.195l-8.814 9.083A2.355 2.355 0 0 1 6.792 14c-.634 0-1.243-.26-1.691-.722L.703 8.745a2.508 2.508 0 0 1-.69-2.001 2.474 2.474 0 0 1 1.078-1.81 2.38 2.38 0 0 1 3.036.375l.884.912c.249.255.388.602.388.963 0 .362-.14.709-.388.964a.63.63 0 0 0 0 .868c.233.24.61.24.843 0l.944-.973L13.873.76A2.38 2.38 0 0 1 16.91.383a2.474 2.474 0 0 1 1.078 1.81 2.508 2.508 0 0 1-.69 2.002z"/>
</svg>
