<?xml version="1.0" encoding="UTF-8"?>
<svg width="24px" height="24px" viewBox="0 0 24 24" version="1.1" xmlns="http://www.w3.org/2000/svg" xmlns:xlink="http://www.w3.org/1999/xlink">
    <!-- Generator: sketchtool 50.2 (55047) - http://www.bohemiancoding.com/sketch -->
    <title>96D79C54-5166-4742-BD4B-6079F3C95ACE</title>
    <desc>Created with sketchtool.</desc>
    <defs></defs>
    <g id="Symbols" stroke="none" stroke-width="1" fill="none" fill-rule="evenodd">
        <g id="UI/icon/tahmin-edilen-seviye-solid" fill="#FFFFFF" fill-rule="nonzero">
            <path d="M19.9035714,4.18972138 C19.7774856,4.06256405 19.7395854,3.87237215 19.8072977,3.70659797 C19.8750101,3.5408238 20.0352296,3.43155196 20.2142857,3.42902683 L21.5535714,3.42902683 C21.8001271,3.42902683 22,3.62889452 22,3.87544382 L22,5.21469479 C21.9924338,5.38772778 21.885463,5.54076874 21.7255608,5.60732915 C21.5656587,5.67388955 21.3816867,5.64195562 21.2535714,5.52540102 C21.1633042,5.43692372 21.0188387,5.43692372 20.9285714,5.52540102 L12.5071429,13.9394685 C12.3731655,14.0735914 12.1913637,14.1489535 12.0017857,14.1489535 C11.8122077,14.1489535 11.6304059,14.0735914 11.4964286,13.9394685 L9.14285714,11.5859581 L4.96785714,15.7572785 C4.82673506,15.8985036 4.63294593,15.9742212 4.43345981,15.9660791 C4.2339737,15.957937 4.0470001,15.8666785 3.91785714,15.7144224 C3.68095996,15.412328 3.71185519,14.979806 3.98928571,14.7144484 L8.63214286,10.0717117 C8.76612018,9.93758867 8.94792197,9.86222662 9.1375,9.86222662 C9.32707803,9.86222662 9.50887982,9.93758867 9.64285714,10.0717117 L12,12.425222 L19.9035714,4.51471295 C19.992051,4.42444805 19.992051,4.27998628 19.9035714,4.18972138 Z M2.71428571,17.7143705 C2.31979661,17.7143705 2,17.3945822 2,17.0001034 C2,16.6056245 2.31979661,16.2858362 2.71428571,16.2858362 C3.10877482,16.2858362 3.42857143,16.6056245 3.42857143,17.0001034 C3.42857143,17.3945822 3.10877482,17.7143705 2.71428571,17.7143705 Z M22,20.9571436 C22.0000016,21.2343392 21.8896394,21.5001298 21.6932926,21.6958013 C21.4969458,21.8914729 21.2307726,22.000923 20.9535714,21.9999737 L4.525,21.9999737 C4.10045457,22.002981 3.71646475,21.748326 3.55406568,21.3560679 C3.39166661,20.9638098 3.48328012,20.5122601 3.78571429,20.2143057 L8.58214286,15.4358582 C8.73083888,15.2871238 8.93253933,15.2035621 9.14285714,15.2035621 C9.35317495,15.2035621 9.5548754,15.2871238 9.70357143,15.4358582 L10.1321429,15.8644185 C10.3615757,16.0935239 10.4904967,16.4044505 10.4904967,16.7286818 C10.4904967,17.0529131 10.3615757,17.3638397 10.1321429,17.5929451 L9.775,17.9500787 C9.63216476,18.0985999 9.56043127,18.3015691 9.57822329,18.5068563 C9.59601531,18.7121436 9.70159919,18.8997457 9.86785714,19.0214795 C10.1689176,19.2169297 10.5664656,19.1704253 10.8142857,18.9107681 L12.9178571,16.8072512 C12.9269636,16.7959071 12.9353149,16.7839769 12.9428571,16.7715379 L20.2535714,9.47172722 C20.5456625,9.18225659 20.982485,9.09537692 21.3631153,9.25104991 C21.7437457,9.4067229 21.9944843,9.77480638 22,10.1859944 L22,20.9571436 Z M11.9392857,9.14316431 C11.1880036,9.14318736 10.5773133,8.53729628 10.5714286,7.78605666 L10.5714286,4.8575612 C10.5624488,4.75681757 10.479666,4.67863592 10.3785714,4.67542307 L10.0214286,4.67542307 C9.87075221,4.68276968 9.73170919,4.5946532 9.67402937,4.45526392 C9.61634955,4.31587464 9.65247374,4.15527705 9.76428571,4.05401062 L11.6892857,2.12906055 C11.8620831,1.95697982 12.1414884,1.95697982 12.3142857,2.12906055 L14.2428571,4.03615394 C14.3546691,4.13742037 14.3907933,4.29801796 14.3331135,4.43740724 C14.2754337,4.57679652 14.1363906,4.664913 13.9857143,4.65756639 L13.6285714,4.65756639 C13.5181145,4.65756639 13.4285714,4.74710712 13.4285714,4.8575612 L13.4285714,7.78605666 C13.4227001,8.53590603 12.814175,9.14122941 12.0642857,9.14316431 L11.9392857,9.14316431 Z" id="tahmin-edilen-seviye"></path>
        </g>
    </g>
</svg>