<svg xmlns="http://www.w3.org/2000/svg" width="104" height="104" viewBox="0 0 104 104">
    <g fill="none" fill-rule="nonzero">
        <circle cx="52" cy="52" r="52" fill="#E6F3FF"/>
        <g transform="translate(30 33)">
            <path fill="#007EFF" d="M39.402 24.698a5.818 5.818 0 0 1-.174-1.448V3.503c0-.93-.371-1.82-1.032-2.477A3.533 3.533 0 0 0 35.706 0H6.54C4.595 0 3.018 1.568 3.018 3.502V23.25c0 .478-.058.954-.174 1.418L.083 35.678a2.658 2.658 0 0 0 .485 2.293A2.691 2.691 0 0 0 2.686 39H39.56a2.691 2.691 0 0 0 2.123-1.027c.51-.649.69-1.496.487-2.295l-2.768-10.98zM26.924 34.5H15.322a1.262 1.262 0 0 1-1.017-.52 1.246 1.246 0 0 1-.175-1.122l.671-2.003A1.26 1.26 0 0 1 15.993 30h10.26a1.26 1.26 0 0 1 1.192.855l.671 2.003c.125.38.06.797-.176 1.122a1.262 1.262 0 0 1-1.016.52zm7.778-12.698c0 1.214-.99 2.198-2.21 2.198H9.753c-1.22 0-2.21-.984-2.21-2.198V6c0-.828.675-1.5 1.509-1.5h24.14c.833 0 1.509.672 1.509 1.5v15.802z"/>
            <rect width="3.018" height="3" x="12.07" y="15" fill="#00C9FF" rx=".59"/>
            <rect width="3.018" height="3" x="12.07" y="9" fill="#00C9FF" rx=".59"/>
            <rect width="3.018" height="3" x="15.088" y="12" fill="#00C9FF" rx=".59"/>
        </g>
    </g>
</svg>
