<?xml version="1.0" encoding="UTF-8"?>
<svg width="38px" height="38px" viewBox="0 0 38 38" version="1.1" xmlns="http://www.w3.org/2000/svg" xmlns:xlink="http://www.w3.org/1999/xlink">
    <!-- Generator: sketchtool 50.2 (55047) - http://www.bohemiancoding.com/sketch -->
    <title>E61A8037-FF28-45CA-8D74-D8477F8DBFE4</title>
    <desc>Created with sketchtool.</desc>
    <defs></defs>
    <g id="Ogrenci-Dashboard" stroke="none" stroke-width="1" fill="none" fill-rule="evenodd">
        <g id="02-Ogrenci-Rapor-Genel-ilerleme-acik-Ders-pop-up" transform="translate(-984.000000, -630.000000)">
            <g id="yanlis-cevap-icon" transform="translate(984.000000, 630.000000)">
                <path d="M28.5,19 C23.2532949,19 19,23.2532949 19,28.5 C19,33.7467051 23.2532949,38 28.5,38 C33.7467051,38 38,33.7467051 38,28.5 C38,25.9804433 36.99911,23.5640812 35.2175144,21.7824856 C33.4359188,20.00089 31.0195567,19 28.5,19 Z" id="Shape" fill="#00C9FF" fill-rule="nonzero" opacity="0.299999982"></path>
                <path d="M31.1118614,29.1534443 L31.6391442,29.6807272 C32.0274195,30.0707916 32.0274195,30.7013155 31.6391442,31.09138 L31.125557,31.6049672 C30.7354926,31.9932425 30.1049687,31.9932425 29.7149042,31.6049672 L29.1533822,31.1050757 C28.7633177,30.7168004 28.1327938,30.7168004 27.7427294,31.1050757 L27.2154465,31.6323585 C26.825382,32.0206338 26.1948581,32.0206338 25.8047936,31.6323585 L25.2912064,31.1187713 C24.9029312,30.7287069 24.9029312,30.098183 25.2912064,29.7081185 L25.8184893,29.1808356 C26.2067646,28.7907712 26.2067646,28.1602473 25.8184893,27.7701828 L25.2912064,27.2428999 C24.9029312,26.8528355 24.9029312,26.2223116 25.2912064,25.8322471 L25.8047936,25.3186599 C26.1948581,24.9303846 26.825382,24.9303846 27.2154465,25.3186599 L27.7427294,25.8459427 C28.1327938,26.234218 28.7633177,26.234218 29.1533822,25.8459427 L29.6806651,25.3186599 C30.0707295,24.9303846 30.7012534,24.9303846 31.0913179,25.3186599 L31.6049051,25.8322471 C31.9931804,26.2223116 31.9931804,26.8528355 31.6049051,27.2428999 L31.0776222,27.7701828 C30.716592,28.1659755 30.7316915,28.7759981 31.1118614,29.1534443 Z" id="Path" fill="#007EFF"></path>
                <path d="M9.73071429,16.5367857 C7.22073053,16.8296015 4.77651391,17.5358104 2.49714286,18.6267857 C0.978706853,19.3686961 0.0113531706,20.906473 0,22.5964286 C0.110248779,25.1880012 2.27914531,27.2119019 4.87214286,27.1428571 L13.7478571,27.1428571 C15.1449589,27.1604386 16.3908415,26.2665935 16.8217857,24.9375 C17.6169747,22.3454135 19.2493131,20.0902091 21.4632143,18.525 C21.6662629,18.3761305 21.7701938,18.1270745 21.7331933,17.8780327 C21.6961928,17.6289909 21.5243441,17.4209079 21.2867857,17.3375 C20.0177267,16.9729991 18.7222878,16.707559 17.4121429,16.5435714 C16.7658589,16.458249 16.2835195,15.9061738 16.2857143,15.2542857 C16.2815226,14.7757067 16.5427777,14.3341856 16.9642857,14.1075 C20.0289468,12.5317167 21.6165335,9.06277563 20.8058935,5.71343192 C19.9952536,2.3640882 16.9971185,0.00502707351 13.5510714,0.00502707351 C10.1050244,0.00502707351 7.10688928,2.3640882 6.29624934,5.71343192 C5.4856094,9.06277563 7.0731961,12.5317167 10.1378571,14.1075 C10.6381061,14.3712261 10.9111041,14.92755 10.8136215,15.4845936 C10.7161388,16.0416372 10.2704376,16.4721887 9.71035714,16.5503571 L9.73071429,16.5367857 Z" id="Shape" fill="#00C9FF" fill-rule="nonzero"></path>
            </g>
        </g>
    </g>
</svg>