<?xml version="1.0" encoding="UTF-8"?>
<svg width="34px" height="34px" viewBox="0 0 34 34" version="1.1" xmlns="http://www.w3.org/2000/svg" xmlns:xlink="http://www.w3.org/1999/xlink">
    <!-- Generator: sketchtool 50.2 (55047) - http://www.bohemiancoding.com/sketch -->
    <title>667C4F41-8647-445C-B8F1-B3963497BB63</title>
    <desc>Created with sketchtool.</desc>
    <defs></defs>
    <g id="Ogrenci-Dashboard" stroke="none" stroke-width="1" fill="none" fill-rule="evenodd">
        <g id="02-Ogrenci-Rapor-Genel-ilerleme-acik-Ders-pop-up" transform="translate(-986.000000, -732.000000)" fill-rule="nonzero">
            <g id="geri-bildirimler-icon" transform="translate(986.000000, 732.000000)">
                <rect id="Rectangle-path" fill="#00C9FF" x="0" y="21.8571429" width="12.1428571" height="12.1428571" rx="3.43035015"></rect>
                <rect id="Rectangle-path" fill="#00C9FF" x="21.8571429" y="0" width="12.1428571" height="12.1428571" rx="3.43035015"></rect>
                <path d="M13.8671429,8.5 L15.9678571,8.5 C16.5378939,8.5 17,8.0378939 17,7.46785714 L17,4.675 C17,4.10496324 16.5378939,3.64285714 15.9678571,3.64285714 L13.8671429,3.64285714 C9.29616997,3.65108626 5.28461652,6.68886547 4.0375,11.0864286 C3.96407469,11.3624826 3.71598109,11.5559956 3.43035714,11.56 L1.96714286,11.56 C1.74498088,11.5616821 1.54543675,11.6962711 1.46064634,11.9016229 C1.37585592,12.1069747 1.4223148,12.343139 1.57857143,12.5010714 L5.34892857,16.2714286 C5.74963294,16.6721259 6.39929563,16.6721259 6.8,16.2714286 L10.5703571,12.5010714 C10.7460834,12.3454175 10.8042631,12.0957141 10.715432,11.8784195 C10.6266009,11.661125 10.4101568,11.5236892 10.1757143,11.5357143 C9.92499272,11.5615287 9.68439522,11.4297525 9.57113738,11.2045851 C9.45787953,10.9794177 9.49551737,10.7076908 9.66571429,10.5217857 C10.6833172,9.24081417 12.231176,8.49596303 13.8671429,8.5 Z" id="Shape" fill="#007EFF"></path>
                <path d="M20.1328571,25.5 L18.0321429,25.5 C17.4621061,25.5 17,25.9621061 17,26.5321429 L17,29.325 C17,29.8950368 17.4621061,30.3571429 18.0321429,30.3571429 L20.1328571,30.3571429 C24.70383,30.3489137 28.7153835,27.3111345 29.9625,22.9135714 C30.0359253,22.6375174 30.2840189,22.4440044 30.5696429,22.44 L32.0328571,22.44 C32.2550191,22.4383179 32.4545632,22.3037289 32.5393537,22.0983771 C32.6241441,21.8930253 32.5776852,21.656861 32.4214286,21.4989286 L28.6510714,17.7285714 C28.2503671,17.3278741 27.6007044,17.3278741 27.2,17.7285714 L23.4296429,21.4989286 C23.2539166,21.6545825 23.1957369,21.9042859 23.284568,22.1215805 C23.3733991,22.338875 23.5898432,22.4763108 23.8242857,22.4642857 C24.0750073,22.4384713 24.3156048,22.5702475 24.4288626,22.7954149 C24.5421205,23.0205823 24.5044826,23.2923092 24.3342857,23.4782143 C23.3166828,24.7591858 21.768824,25.504037 20.1328571,25.5 Z" id="Shape" fill="#007EFF"></path>
            </g>
        </g>
    </g>
</svg>