<svg xmlns="http://www.w3.org/2000/svg" width="104" height="104" viewBox="0 0 104 104">
    <g fill="none" fill-rule="nonzero">
        <circle cx="52" cy="52" r="52" fill="#E6F3FF"/>
        <path fill="#007EFF" d="M69.727 46.643H35.273A3.273 3.273 0 0 0 32 49.93v16.305A6.78 6.78 0 0 0 38.78 73h27.44A6.78 6.78 0 0 0 73 66.235V49.93a3.273 3.273 0 0 0-3.273-3.287z"/>
        <path fill="#FFF" d="M56.622 61.403l-5.528 3.602a1.808 1.808 0 0 1-2.804-1.523v-7.197a1.808 1.808 0 0 1 2.797-1.515l5.535 3.587a1.808 1.808 0 0 1 0 3.046z"/>
        <path fill="#00C9FF" d="M58.657 43.788h3.903a.44.44 0 0 0 .38-.227l5.858-10.565a.447.447 0 0 0-.264-.637 6.296 6.296 0 0 0-1.867-.286h-2.013a.44.44 0 0 0-.381.227l-5.996 10.836a.44.44 0 0 0 .38.651zM71.902 36.444l-3.705 6.7a.44.44 0 0 0 .38.65h3.984a.44.44 0 0 0 .439-.438v-4.942a6.26 6.26 0 0 0-.3-1.911.44.44 0 0 0-.798-.059z"/>
        <path fill="#007EFF" d="M48.707 32h-3.902a.44.44 0 0 0-.38.227l-5.997 10.836a.44.44 0 0 0 .38.651h3.903a.44.44 0 0 0 .381-.227l5.996-10.835a.44.44 0 0 0-.38-.652zM58.628 32.073h-3.932a.44.44 0 0 0-.38.227l-5.997 10.836a.44.44 0 0 0 .381.651h3.902a.44.44 0 0 0 .381-.226l6.033-10.829a.44.44 0 0 0-.388-.659zM32.44 43.714h.343a.44.44 0 0 0 .381-.227l5.996-10.835a.44.44 0 0 0-.38-.652A6.78 6.78 0 0 0 32 38.794v4.496a.44.44 0 0 0 .44.424z"/>
    </g>
</svg>
