<?xml version="1.0" encoding="UTF-8"?>
<svg width="41px" height="41px" viewBox="0 0 41 41" version="1.1" xmlns="http://www.w3.org/2000/svg" xmlns:xlink="http://www.w3.org/1999/xlink">
    <!-- Generator: sketchtool 50.2 (55047) - http://www.bohemiancoding.com/sketch -->
    <title>72E0873D-E5D6-4DA0-B025-F58DFBA5C71E</title>
    <desc>Created with sketchtool.</desc>
    <defs></defs>
    <g id="Ogrenci-Dashboard" stroke="none" stroke-width="1" fill="none" fill-rule="evenodd">
        <g id="02-Ogrenci-Rapor-Genel-ilerleme-acik-Ders-pop-up" transform="translate(-983.000000, -370.000000)">
            <g id="kazanimlar-icon" transform="translate(983.000000, 370.000000)">
                <path d="M7.36535714,35.1428571 L21.5103571,35.1428571 C22.0196961,35.1448124 22.5087383,34.9433433 22.8688979,34.5831837 C23.2290576,34.223024 23.4305267,33.7339818 23.4285714,33.2246429 C23.4285588,30.6505889 25.5109587,28.5616406 28.085,28.5535714 C28.3437849,28.5535714 28.5535714,28.3437849 28.5535714,28.085 C28.5518258,25.6302003 30.453299,23.5942795 32.9025,23.4285714 L33.2246429,23.4285714 C33.7339818,23.4305267 34.223024,23.2290576 34.5831837,22.8688979 C34.9433433,22.5087383 35.1448124,22.0196961 35.1428571,21.5103571 L35.1428571,7.36535714 C35.1428571,3.29758272 31.8452744,6.50273486e-16 27.7775,0 L7.36535714,0 C3.29758272,-6.50273486e-16 6.50273486e-16,3.29758272 0,7.36535714 L0,27.7775 C6.50273486e-16,31.8452744 3.29758272,35.1428571 7.36535714,35.1428571 Z" id="Combined-Shape" fill="#00C9FF" fill-rule="nonzero" opacity="0.299999982"></path>
                <path d="M39.2648214,31.4821429 L37.6175,31.4821429 C37.1553603,31.4821429 36.7121486,31.2985586 36.3853664,30.9717764 C36.0585843,30.6449943 35.875,30.2017826 35.875,29.7396429 L35.875,28.0923214 C35.8740732,27.5305645 35.6012491,27.0040141 35.1428571,26.6792857 L34.9891071,26.5841071 L34.8719643,26.5255357 L34.7328571,26.4669643 L34.5644643,26.4157143 L34.4473214,26.4157143 C34.3425978,26.4061747 34.2372237,26.4061747 34.1325,26.4157143 L33.2246429,26.4157143 C32.287443,26.415044 31.517583,27.1557916 31.4821429,28.0923214 L31.4821429,29.7469643 C31.4781113,30.70646 30.6991471,31.4821513 29.7396429,31.4821429 L28.0923214,31.4821429 C27.1328257,31.4861744 26.3571344,32.2651386 26.3571429,33.2246429 L26.3571429,34.1325 C26.3476435,34.2372255 26.3476435,34.3425959 26.3571429,34.4473214 C26.3571429,34.4839286 26.3571429,34.5278571 26.3571429,34.5644643 C26.3713664,34.6214261 26.3884717,34.6776294 26.4083929,34.7328571 L26.4669643,34.8719643 L26.5255357,34.9891071 C26.5255357,35.0403571 26.5841071,35.0916071 26.6207143,35.1428571 C26.9454427,35.6012491 27.4719931,35.8740732 28.03375,35.875 L29.6883929,35.875 C30.159347,35.8611424 30.6158401,36.0385907 30.9537921,36.3668868 C31.291744,36.695183 31.4823467,37.146342 31.4821429,37.6175 L31.4821429,39.2721429 C31.4901821,40.2287757 32.2679762,41.0000338 33.2246429,41 L34.1325,41 C35.0920042,41.0000085 35.8709685,40.2243172 35.875,39.2648214 L35.875,37.6175 C35.875,37.1553603 36.0585843,36.7121486 36.3853664,36.3853664 C36.7121486,36.0585843 37.1553603,35.875 37.6175,35.875 L39.2721429,35.875 C40.2287757,35.8669608 41.0000338,35.0891667 41,34.1325 L41,33.2246429 C41.0000085,32.2651386 40.2243172,31.4861744 39.2648214,31.4821429 Z" id="Shape" fill="#007EFF"></path>
                <path d="M8.78571429,9.21035714 C8.78571429,8.1671307 9.63141641,7.32142857 10.6746429,7.32142857 L17.1467857,7.32142857 C17.6477607,7.32142857 18.1282171,7.52044012 18.4824599,7.87468294 C18.8367027,8.22892576 19.0357143,8.70938214 19.0357143,9.21035714 L19.0357143,9.82535714 C19.0357143,10.3263321 18.8367027,10.8067885 18.4824599,11.1610313 C18.1282171,11.5152742 17.6477607,11.7142857 17.1467857,11.7142857 L10.6746429,11.7142857 C9.63141641,11.7142857 8.78571429,10.8685836 8.78571429,9.82535714 L8.78571429,9.21035714 Z" id="Shape" fill="#00C9FF"></path>
                <path d="M8.78571429,17.2639286 C8.78571429,16.2207021 9.63141641,15.375 10.6746429,15.375 L24.4682143,15.375 C25.5114407,15.375 26.3571429,16.2207021 26.3571429,17.2639286 L26.3571429,17.8789286 C26.3571429,18.922155 25.5114407,19.7678571 24.4682143,19.7678571 L10.6746429,19.7678571 C9.63141641,19.7678571 8.78571429,18.922155 8.78571429,17.8789286 L8.78571429,17.2639286 Z" id="Shape" fill="#007EFF"></path>
                <path d="M8.78571429,25.3175 C8.78571429,24.2742736 9.63141641,23.4285714 10.6746429,23.4285714 L18.6110714,23.4285714 C19.1120464,23.4285714 19.5925028,23.627583 19.9467456,23.9818258 C20.3009885,24.3360686 20.5,24.816525 20.5,25.3175 L20.5,25.9325 C20.5,26.9757264 19.6542979,27.8214286 18.6110714,27.8214286 L10.6746429,27.8214286 C9.63141641,27.8214286 8.78571429,26.9757264 8.78571429,25.9325 L8.78571429,25.3175 Z" id="Shape" fill="#00C9FF"></path>
            </g>
        </g>
    </g>
</svg>