<?xml version="1.0" encoding="UTF-8"?>
<svg width="24px" height="24px" viewBox="0 0 24 24" version="1.1" xmlns="http://www.w3.org/2000/svg" xmlns:xlink="http://www.w3.org/1999/xlink">
    <!-- Generator: sketchtool 50.2 (55047) - http://www.bohemiancoding.com/sketch -->
    <title>252A4C1E-90D5-4D42-9E77-1F4A6D0FBAC8</title>
    <desc>Created with sketchtool.</desc>
    <defs></defs>
    <g id="Symbols" stroke="none" stroke-width="1" fill="none" fill-rule="evenodd">
        <g id="UI/icon/genel-ilerleme-solid" fill="#FFFFFF" fill-rule="nonzero">
            <g id="genel-ilerleme" transform="translate(2.000000, 2.000000)">
                <path d="M11.4038462,10 L19.0961538,10 C19.3195029,10.002046 19.5327126,9.90691092 19.6803693,9.73932062 C19.8280259,9.57173032 19.8955474,9.34823554 19.8653846,9.12692308 C19.1497133,4.48776614 15.5116202,0.846560966 10.8730769,0.126923077 C10.6517645,0.0967603152 10.4282697,0.164281748 10.2606794,0.311938403 C10.0930891,0.459595057 9.99795401,0.672804767 10,0.896153846 L10,8.58846154 C9.99795255,8.9621157 10.144953,9.3211688 10.4084474,9.58610708 C10.6719419,9.85104535 11.0301864,10.0000056 11.4038462,10 Z M17.3076923,6.4 L17.4038462,6.58846154 C17.5326307,6.83700479 17.516232,7.13588869 17.3610289,7.36885052 C17.2058258,7.60181235 16.9363213,7.73207288 16.6573498,7.70896212 C16.3783782,7.68585136 16.1339828,7.51301796 16.0192308,7.25769231 L15.9423077,7.10384615 C15.7754865,6.7311119 15.9289928,6.29298476 16.2919665,6.10587441 C16.6549401,5.91876406 17.1008616,6.04789036 17.3076923,6.4 Z M12.3653846,2.93846154 C12.5503061,2.55624353 13.0099465,2.39614406 13.3923077,2.58076923 C14.3446424,3.03984283 15.2039424,3.67095239 15.9269231,4.44230769 C16.2179346,4.75243682 16.2024368,5.23975764 15.8923077,5.53076922 C15.5821786,5.82178079 15.0948577,5.80628296 14.8038462,5.49615385 C14.2112989,4.85914261 13.5057875,4.33750758 12.7230769,3.95769231 C12.3525134,3.76596054 12.2023531,3.31377319 12.3846154,2.93846154 L12.3653846,2.93846154 Z" id="Shape"></path>
                <path d="M8.46153846,19.9461538 C13.3499823,20.3561853 17.7052598,16.8709496 18.3769231,12.0115385 C18.3968014,11.8615742 18.3512672,11.7102999 18.251912,11.5962255 C18.1525569,11.4821511 18.0089656,11.4162813 17.8576923,11.4153846 L10.8846154,11.4153846 C9.61011212,11.4153846 8.57692308,10.3821956 8.57692308,9.10769231 L8.57692308,2.14615385 C8.57713119,1.99420889 8.51173746,1.84957031 8.39752417,1.74935736 C8.28331087,1.6491444 8.13139712,1.60311319 7.98076923,1.62307692 C3.35885612,2.30250846 -0.02684161,6.32783706 0.0956913956,10.997815 C0.218224401,15.6677929 3.81035501,19.510034 8.46153846,19.9461538 Z" id="Shape"></path>
            </g>
        </g>
    </g>
</svg>