<?xml version="1.0" encoding="UTF-8"?>
<svg width="41px" height="41px" viewBox="0 0 41 41" version="1.1" xmlns="http://www.w3.org/2000/svg" xmlns:xlink="http://www.w3.org/1999/xlink">
    <!-- Generator: Sketch 51.3 (57544) - http://www.bohemiancoding.com/sketch -->
    <title>Artboard 2</title>
    <desc>Created with Sketch.</desc>
    <defs></defs>
    <g id="Artboard-2" stroke="none" stroke-width="1" fill="none" fill-rule="evenodd">
        <path d="M38.7698574,24.1455335 C40.4100358,25.8131792 40.4100358,28.5263467 38.7699275,30.1938498 L31.0879753,37.9894306 C30.9169116,38.1630665 30.7046244,38.2887315 30.4717253,38.3543083 L24.8122509,39.9481801 C24.6886504,39.9830356 24.5627363,40 24.438014,40 C24.0652494,40 23.7018091,39.8486745 23.4342767,39.5699019 C23.0771462,39.1977538 22.9476565,38.6575295 23.0962857,38.1600014 L24.7727801,32.5485547 C24.8399436,32.323883 24.9605295,32.1195971 25.1240215,31.9537307 L32.8220986,24.1443931 C34.4611553,22.4779591 37.1297491,22.4780304 38.7698574,24.1455335 Z M28.262173,36.4344653 C28.8860965,36.2583552 29.4541219,35.9216524 29.910718,35.4572736 L34.06743,31.2297102 C34.7066897,30.5795542 34.7071767,29.5299963 34.0685205,28.8792349 C34.0657781,28.8764405 34.0630258,28.8736561 34.0602637,28.8708818 C33.42297,28.2307685 32.3928409,28.2339296 31.7594059,28.8779421 L27.5301485,33.1778228 C27.0971183,33.6180841 26.7779429,34.1592584 26.6007706,34.753619 L26.079515,36.5022774 C26.0609049,36.5647088 26.06024,36.6311999 26.0775977,36.6939986 C26.1281636,36.8769411 26.3159123,36.9838213 26.4969461,36.9327222 L28.262173,36.4344653 Z M36.4759597,28.867171 C37.1357621,28.2013265 37.1357621,27.1162719 36.474773,26.4494012 C35.8137838,25.7825304 34.738299,25.7825304 34.0773098,26.4494012 C33.8961321,26.6318124 33.8959795,26.9263156 34.0769682,27.1089147 L35.8193809,28.8668316 C35.8201687,28.8676265 35.8209594,28.8684185 35.821753,28.8692076 C36.0029693,29.0494023 36.2958675,29.0484905 36.4759597,28.867171 Z M31.3823035,12.1689098 C29.3492855,12.1707255 27.3989183,11.3576733 25.9607208,9.90880727 C24.5225232,8.45994126 23.7144455,6.49408661 23.7144463,4.444173 L23.7144463,3.20575194 C23.707794,2.86689057 23.9083253,2.55873167 24.2192657,2.42998977 C24.5302061,2.30124786 24.8876463,2.37838399 25.1190892,2.624173 L33.2144463,10.7594362 C33.4572574,10.9969872 33.5290967,11.3611792 33.3949161,11.6743354 C33.2607356,11.9874915 32.9484917,12.1843658 32.6105177,12.1689098 L31.3823035,12.1689098 Z M31.5526453,23.576906 L23.7142857,31.5910557 L18.823748,35.8735952 C16.2897361,38.0925754 13.0361043,39.3157925 9.66785714,39.3157925 C7.63483922,39.3176082 5.684472,38.504556 4.24627445,37.0556899 C2.8080769,35.6068239 1.9999992,33.6409693 2,31.5910557 L2,8.72473988 C1.9999992,6.67482626 2.8080769,4.70897161 4.24627445,3.2601056 C5.684472,1.81123958 7.63483922,0.998187345 9.66785714,1.00000303 L17.8107143,1.00000303 C19.5732052,1.00377616 21.000004,2.44549293 21,4.22263461 C20.9999994,6.99840374 22.0940457,9.6603847 24.0412705,11.6225081 C25.9884952,13.5846316 28.6292515,14.686029 31.3821429,14.6842136 C33.1446338,14.6879867 34.5714286,15.7105263 34.5714286,17.9068451 C34.1283644,20.046757 33.0806553,22.0146275 31.5526453,23.576906 Z M16.9285714,31.1052632 C17.6781007,31.1052632 18.2857143,30.4926002 18.2857143,29.7368421 C18.2857143,28.981084 17.6781007,28.3684211 16.9285714,28.3684211 L10.1428571,28.3684211 C9.39332784,28.3684211 8.78571429,28.981084 8.78571429,29.7368421 C8.78571429,30.4926002 9.39332784,31.1052632 10.1428571,31.1052632 L16.9285714,31.1052632 Z M16.9285714,14.6842105 C17.6781007,14.6842105 18.2857143,14.0715476 18.2857143,13.3157895 C18.2857143,12.5600314 17.6781007,11.9473684 16.9285714,11.9473684 L10.1428571,11.9473684 C9.39332784,11.9473684 8.78571429,12.5600314 8.78571429,13.3157895 C8.78571429,14.0715476 9.39332784,14.6842105 10.1428571,14.6842105 L16.9285714,14.6842105 Z M26.4285714,25.6315789 C27.1781007,25.6315789 27.7857143,25.018916 27.7857143,24.2631579 C27.7857143,23.5073998 27.1781007,22.8947368 26.4285714,22.8947368 L10.1428571,22.8947368 C9.39332784,22.8947368 8.78571429,23.5073998 8.78571429,24.2631579 C8.78571429,25.018916 9.39332784,25.6315789 10.1428571,25.6315789 L26.4285714,25.6315789 Z M26.4285714,20.1578947 C27.1781007,20.1578947 27.7857143,19.5452318 27.7857143,18.7894737 C27.7857143,18.0337156 27.1781007,17.4210526 26.4285714,17.4210526 L10.1428571,17.4210526 C9.39332784,17.4210526 8.78571429,18.0337156 8.78571429,18.7894737 C8.78571429,19.5452318 9.39332784,20.1578947 10.1428571,20.1578947 L26.4285714,20.1578947 Z" id="Mask" fill="#007EFF" fill-rule="nonzero"></path>
    </g>
</svg>