<svg xmlns="http://www.w3.org/2000/svg" width="30" height="30" viewBox="0 0 30 30">
    <path fill="#8E9AA9" fill-rule="evenodd" d="M18.84 26h4.016a.862.862 0 0 0 .859-.865v-7.896c0-.647.52-1.172 1.162-1.172h.916c.463.01.89-.252 1.097-.67a1.182 1.182 0 0 0-.23-1.329l-9.168-9.237A2.803 2.803 0 0 0 15.502 4c-.746 0-1.462.299-1.99.83L4.34 14.069c-.346.35-.438.881-.23 1.329.207.418.634.68 1.097.67h.916c.642 0 1.162.525 1.162 1.172v7.896c0 .478.385.865.859.865h4.017a.872.872 0 0 0 .618-.258.885.885 0 0 0 .257-.624v-5.686c0-.234.092-.458.256-.623a.872.872 0 0 1 .618-.259h3.184c.481.003.87.397.87.882v5.686c0 .234.093.458.257.624a.872.872 0 0 0 .618.258z"/>
</svg>
