<?xml version="1.0" encoding="UTF-8"?>
<svg width="20px" height="20px" viewBox="0 0 20 20" version="1.1" xmlns="http://www.w3.org/2000/svg" xmlns:xlink="http://www.w3.org/1999/xlink">
    <!-- Generator: sketchtool 50.2 (55047) - http://www.bohemiancoding.com/sketch -->
    <title>F9F8844B-37C3-4DE1-91BB-A841A99EDA62</title>
    <desc>Created with sketchtool.</desc>
    <defs></defs>
    <g id="Symbols" stroke="none" stroke-width="1" fill="none" fill-rule="evenodd" opacity="0.799999952">
        <g id="UI/icon-butonlar/header-menu" fill="#FFFFFF" fill-rule="nonzero">
            <path d="M3,1 L17,1 C18.1045695,1 19,1.8954305 19,3 C19,4.1045695 18.1045695,5 17,5 L3,5 C1.8954305,5 1,4.1045695 1,3 C1,1.8954305 1.8954305,1 3,1 Z M3,8 L17,8 C18.1045695,8 19,8.8954305 19,10 C19,11.1045695 18.1045695,12 17,12 L3,12 C1.8954305,12 1,11.1045695 1,10 C1,8.8954305 1.8954305,8 3,8 Z M3,15 L17,15 C18.1045695,15 19,15.8954305 19,17 C19,18.1045695 18.1045695,19 17,19 L3,19 C1.8954305,19 1,18.1045695 1,17 C1,15.8954305 1.8954305,15 3,15 Z" id="Combined-Shape"></path>
        </g>
    </g>
</svg>