<svg xmlns="http://www.w3.org/2000/svg" width="19" height="19" viewBox="0 0 19 19">
    <path fill="#838F9F" fill-rule="nonzero" d="M9.5 0a9.5 9.5 0 1 0 0 19 9.5 9.5 0 0 0 0-19zm0 4.071a1.696 1.696 0 1 1 0 3.393 1.696 1.696 0 0 1 0-3.393zm2.714 10.349a.509.509 0 0 1-.509.509h-4.41a.509.509 0 0 1-.51-.51v-.339c0-.28.229-.509.51-.509a.509.509 0 0 0 .509-.508v-3.054a.509.509 0 0 0-.51-.509.509.509 0 0 1-.508-.509v-.34c0-.28.228-.508.509-.508h3.393c.28 0 .508.228.508.509v4.41c0 .282.228.51.51.51.28 0 .508.227.508.508v.34z"/>
</svg>
