<svg xmlns="http://www.w3.org/2000/svg" width="104" height="104" viewBox="0 0 104 104">
    <g fill="none" fill-rule="nonzero">
        <circle cx="52" cy="52" r="52" fill="#E6F3FF"/>
        <g transform="translate(31 35)">
            <path fill="#007EFF" d="M36.489 0H6.542A6.511 6.511 0 0 0 0 6.511v21.846c.002.147.017.294.046.438H0a4.991 4.991 0 0 0 4.991 4.99H38.01A4.991 4.991 0 0 0 43 28.796h-.046a2.35 2.35 0 0 0 .046-.438V6.511A6.511 6.511 0 0 0 36.489 0zm3.44 23.358a4.285 4.285 0 0 1-4.285 4.285H7.356a4.285 4.285 0 0 1-4.285-4.285V6.511c0-1.9 1.54-3.44 3.44-3.44h29.947a3.44 3.44 0 0 1 3.47 3.44v16.847z"/>
            <path fill="#00C9FF" d="M29.179 43a1.536 1.536 0 1 0 0-3.071h-2.005c-.589 0-1.067-.478-1.067-1.068a2.004 2.004 0 0 0-2.004-2.004h-5.206a2.004 2.004 0 0 0-2.004 2.004c0 .59-.478 1.068-1.067 1.068H13.82a1.536 1.536 0 1 0 0 3.071H29.18z"/>
            <circle cx="32.25" cy="15.38" r="1.536" fill="#007EFF"/>
            <circle cx="32.25" cy="21.523" r="1.536" fill="#007EFF"/>
            <path fill="#00C9FF" d="M26.645 15.357h-7.05a1.167 1.167 0 0 1-1.166-1.167V7.141a.944.944 0 0 0-1.045-.937 9.214 9.214 0 1 0 10.197 10.197.944.944 0 0 0-.936-1.044z"/>
            <circle cx="32.25" cy="9.237" r="1.536" fill="#007EFF"/>
        </g>
    </g>
</svg>
