<svg xmlns="http://www.w3.org/2000/svg" width="48" height="58" viewBox="0 0 48 58">
    <path fill="#FFF" fill-rule="evenodd" d="M47.699 34.16a1.045 1.045 0 0 1 0 1.471l-7.022 7.123a1.025 1.025 0 0 1-.727.305 1.02 1.02 0 0 1-.725-.305l-1.224-1.242c-.4-.407-.4-1.064 0-1.47l5.072-5.146L38 29.754c-.4-.406-.4-1.064 0-1.47l1.224-1.243c.193-.194.454-.304.725-.304.272 0 .532.11.727.304l7.022 7.12zM30.066 20.499c1.223-.474 2.587.152 3.05 1.39.466 1.237-.148 2.622-1.37 3.093l-6.029 2.326a2.327 2.327 0 0 1-.841.157 2.353 2.353 0 0 1-1.89-.959l-.543-.733v8.778l4.155 7.557c.257.47.393 1 .393 1.537v11.191c0 1.748-1.398 3.165-3.121 3.165-1.724 0-3.123-1.417-3.123-3.165v-10.37l-3.385-6.18.529 4.851a3.176 3.176 0 0 1-1.62 3.132L4.606 52.664a3.074 3.074 0 0 1-1.482.38 3.11 3.11 0 0 1-2.746-1.66c-.821-1.538-.255-3.458 1.26-4.29l9.819-5.381-.569-7.163V20.135l-2.204 1.132L5.56 27.86a2.364 2.364 0 0 1-2.134 1.36c-.343 0-.692-.077-1.021-.238-1.177-.574-1.673-2.006-1.109-3.2l3.47-7.324a2.397 2.397 0 0 1 1.062-1.1l5.986-3.077c.867-1.2 2.257-1.987 3.833-1.987h2.035c2.63 0 4.761 2.162 4.761 4.827v.67l3.256 4.393 4.367-1.685zm-13.4-9.285c-3.056 0-5.532-2.509-5.532-5.606C11.134 2.51 13.61 0 16.666 0c3.052 0 5.528 2.51 5.528 5.607 0 3.097-2.476 5.606-5.528 5.606z"/>
</svg>
