<svg xmlns="http://www.w3.org/2000/svg" xmlns:xlink="http://www.w3.org/1999/xlink" width="40" height="40" viewBox="0 0 40 40">
    <defs>
        <path id="readinga" d="M30.664 11.143c-4.414-.004-7.99-3.523-7.99-7.863V2.02c-.001-.339.206-.645.524-.774a.86.86 0 0 1 .928.182l8.408 8.28a.826.826 0 0 1 .195.911.85.85 0 0 1-.783.524h-1.282zm0 2.786c1.842 0 3.336 1.468 3.336 3.28v13.928C34 35.48 30.42 39 26.003 39H7.997C3.58 39 0 35.48 0 31.137V7.863C0 3.52 3.58 0 7.997 0h8.5c1.843 0 3.336 1.469 3.336 3.28 0 5.881 4.85 10.649 10.83 10.649zM16.95 15.085c-.064.405.056.817.329 1.127.273.31.671.486 1.088.481h5.801a.298.298 0 1 0 .128-.571 6.382 6.382 0 0 1-2.253-1.497 2.25 2.25 0 0 0-1.664-.696h-1.934a1.461 1.461 0 0 0-1.495 1.156zm-11.27.236v5.572c0 .77.635 1.393 1.418 1.393H12.7c.783 0 1.417-.624 1.417-1.393V15.32c0-.769-.634-1.392-1.417-1.392H7.098c-.783 0-1.417.623-1.417 1.392zM24.035 33.43c.782 0 1.416-.624 1.416-1.393 0-.77-.634-1.393-1.416-1.393H9.867c-.782 0-1.417.623-1.417 1.393 0 .769.635 1.393 1.417 1.393h14.167zm2.833-5.572c.782 0 1.417-.623 1.417-1.393 0-.769-.635-1.393-1.417-1.393H7.034c-.783 0-1.417.624-1.417 1.393 0 .77.634 1.393 1.417 1.393h19.833zm0-5.571c.782 0 1.417-.624 1.417-1.393 0-.77-.635-1.393-1.417-1.393h-8.5c-.782 0-1.417.624-1.417 1.393 0 .77.635 1.393 1.417 1.393h8.5z"/>
    </defs>
    <g fill="none" fill-rule="evenodd" transform="translate(3 1)">
        <mask id="readingb" fill="#fff">
            <use xlink:href="#readinga"/>
        </mask>
        <use fill="#fff" fill-rule="nonzero" xlink:href="#readinga"/>
        <g fill="#fff" mask="url(#readingb)">
            <path d="M-8-5h49v49H-8z"/>
        </g>
    </g>
</svg>
