<svg xmlns="http://www.w3.org/2000/svg" xmlns:xlink="http://www.w3.org/1999/xlink" width="40" height="40" viewBox="0 0 40 40">
    <defs>
        <path id="listeninga" d="M30.678 11.143a8.067 8.067 0 0 1-5.664-2.298 7.796 7.796 0 0 1-2.347-5.565V2.02a.835.835 0 0 1 .528-.798.86.86 0 0 1 .945.206l8.443 8.28c.253.241.328.61.19.928a.851.851 0 0 1-.813.507h-1.282zm0 2.786c1.837.007 3.322 1.474 3.322 3.28v13.928c0 4.335-3.567 7.851-7.976 7.863H8.011a8.067 8.067 0 0 1-5.664-2.298A7.796 7.796 0 0 1 0 31.137V7.863c0-2.088.844-4.09 2.347-5.565A8.067 8.067 0 0 1 8.011 0h8.5c1.837.008 3.322 1.474 3.322 3.28 0 2.827 1.143 5.537 3.177 7.535a10.925 10.925 0 0 0 7.668 3.114zM5 25.069c0 .73.283 1.432.788 1.948a2.659 2.659 0 0 0 1.902.807h.648c.9.001 1.781.251 2.553.724l3.534 2.156c.646.38 1.44.38 2.087.001a2.157 2.157 0 0 0 1.055-1.843V17.134a2.157 2.157 0 0 0-1.055-1.843 2.054 2.054 0 0 0-2.087.001l-3.534 2.156a4.892 4.892 0 0 1-2.557.724H7.69c-1.486 0-2.69 1.233-2.69 2.755v4.142zm14.987-10.066a.774.774 0 0 0-.597.211.813.813 0 0 0-.252.593v1.609a.8.8 0 0 0 .652.804c2.329.333 4.062 2.372 4.062 4.78 0 2.408-1.733 4.447-4.062 4.78a.8.8 0 0 0-.652.804v1.61c0 .224.09.439.252.592.161.153.378.23.597.211C23.976 30.557 27 27.11 27 23s-3.024-7.557-7.013-7.997zm-.185 9.455c.553-.264.907-.833.907-1.458s-.354-1.194-.907-1.458a.466.466 0 0 0-.451.041.49.49 0 0 0-.213.41v2.01a.49.49 0 0 0 .211.413.466.466 0 0 0 .453.042z"/>
    </defs>
    <g fill="none" fill-rule="evenodd" transform="translate(3 1)">
        <mask id="listeningb" fill="#fff">
            <use xlink:href="#listeninga"/>
        </mask>
        <use fill="#fff" fill-rule="nonzero" xlink:href="#listeninga"/>
        <g fill="#fff" mask="url(#listeningb)">
            <path d="M-8-5h49v49H-8z"/>
        </g>
    </g>
</svg>
