<svg xmlns="http://www.w3.org/2000/svg" xmlns:xlink="http://www.w3.org/1999/xlink" width="40" height="40" viewBox="0 0 40 40">
    <defs>
        <path id="vocabukarya" d="M30.664 11.361c-4.417 0-7.997-3.52-7.997-7.863v-1.26a.836.836 0 0 1 .525-.782.86.86 0 0 1 .934.19l8.422 8.287c.244.24.317.6.185.912a.85.85 0 0 1-.787.516h-1.282zm-10.83-8.08c0 5.88 4.848 10.648 10.83 10.648 1.842 0 3.336 1.468 3.336 3.28v13.928C34 35.48 30.42 39 26.003 39H7.997C3.58 39 0 35.48 0 31.137V7.863C0 3.52 3.58 0 7.997 0h8.5c1.843 0 3.336 1.469 3.336 3.28zm-2.817 11.805c-.065.405.056.817.329 1.127.273.31.67.486 1.088.482h5.801a.298.298 0 1 0 .128-.571 6.382 6.382 0 0 1-2.253-1.498 2.25 2.25 0 0 0-1.665-.696h-1.933a1.461 1.461 0 0 0-1.495 1.156zm9.9 12.771c.782 0 1.416-.623 1.416-1.393 0-.769-.634-1.393-1.416-1.393H7.083c-.782 0-1.416.624-1.416 1.393 0 .77.634 1.393 1.416 1.393h19.834zm0-5.571c.782 0 1.416-.624 1.416-1.393 0-.77-.634-1.393-1.416-1.393h-8.5c-.783 0-1.417.624-1.417 1.393 0 .77.634 1.393 1.417 1.393h8.5zM16.292 33.429c.782 0 1.416-.624 1.416-1.393 0-.77-.634-1.393-1.416-1.393h-8.5c-.783 0-1.417.623-1.417 1.393 0 .769.634 1.393 1.417 1.393h8.5zm-4.597-13.401c.46 0 .865.3.998.74s.538.741.998.741h.701a1.016 1.016 0 0 0 .949-1.378l-2.387-6.245a2.1 2.1 0 0 0-1.962-1.35h-.185a2.1 2.1 0 0 0-1.961 1.35l-2.4 6.277a.992.992 0 0 0 .927 1.346h.668c.459 0 .863-.301.994-.74.131-.44.536-.741.994-.741h1.666zm.214-3.163a.7.7 0 0 1-.667.912h-.623a.7.7 0 0 1-.668-.911l.344-1.085a.665.665 0 0 1 1.269-.002l.345 1.086zm10.692 13.081a.67.67 0 0 0 0 1.342h2.529l-3.09 3.172c-.29.299-.454.7-.454 1.118 0 .36.292.651.651.651h4.737a.675.675 0 1 0 0-1.35h-3.038l3.144-3.227c.281-.289.439-.675.439-1.078a.628.628 0 0 0-.628-.628H22.6z"/>
    </defs>
    <g fill="none" fill-rule="evenodd" transform="translate(3 1)">
        <mask id="vocabularyb" fill="#fff">
            <use xlink:href="#vocabukarya"/>
        </mask>
        <use fill="#fff" fill-rule="nonzero" xlink:href="#vocabukarya"/>
        <g fill="#fff" mask="url(#vocabularyb)">
            <path d="M-8-5h49v49H-8z"/>
        </g>
    </g>
</svg>
