<svg xmlns="http://www.w3.org/2000/svg" xmlns:xlink="http://www.w3.org/1999/xlink" width="40" height="40" viewBox="0 0 40 40">
    <defs>
        <path id="grammara" d="M36.77 23.146c1.64 1.667 1.64 4.38 0 6.048l-7.682 7.795c-.171.174-.383.3-.616.365l-5.66 1.594a1.378 1.378 0 0 1-1.378-.378 1.442 1.442 0 0 1-.338-1.41l1.677-5.611a1.43 1.43 0 0 1 .351-.595l7.698-7.81a4.162 4.162 0 0 1 5.948.002zM26.262 35.434a3.735 3.735 0 0 0 1.649-.977l4.156-4.227a1.68 1.68 0 0 0-.007-2.36 1.615 1.615 0 0 0-2.3.008l-4.23 4.3c-.433.44-.752.981-.93 1.576l-.52 1.748a.347.347 0 0 0-.002.192.34.34 0 0 0 .419.239l1.765-.499zm8.214-7.567c.66-.666.66-1.75-.001-2.418a1.687 1.687 0 0 0-2.398 0 .468.468 0 0 0 0 .66l1.742 1.758.003.002c.181.18.474.18.654-.002zM29.382 11.17a7.63 7.63 0 0 1-5.421-2.26 7.757 7.757 0 0 1-2.247-5.465V2.206a.821.821 0 0 1 .505-.776.81.81 0 0 1 .9.194l8.095 8.135a.826.826 0 0 1 .18.915.814.814 0 0 1-.783.495h-1.229zm.17 11.408l-7.838 8.014-4.89 4.283a13.898 13.898 0 0 1-9.156 3.442 7.63 7.63 0 0 1-5.422-2.26A7.757 7.757 0 0 1 0 30.59V7.725c0-2.05.808-4.016 2.246-5.465A7.63 7.63 0 0 1 7.668 0h8.143C17.573.004 19 1.445 19 3.223c0 2.775 1.094 5.437 3.041 7.4a10.332 10.332 0 0 0 7.341 3.061c1.763.004 3.19 1.027 3.19 3.223a11.42 11.42 0 0 1-3.02 5.67zM14.93 30.105c.75 0 1.357-.612 1.357-1.368 0-.756-.608-1.369-1.357-1.369H8.143c-.75 0-1.357.613-1.357 1.369s.607 1.368 1.357 1.368h6.786zm0-16.42c.75 0 1.357-.613 1.357-1.37 0-.755-.608-1.368-1.357-1.368H8.143c-.75 0-1.357.613-1.357 1.369s.607 1.368 1.357 1.368h6.786zm9.5 10.947c.75 0 1.357-.613 1.357-1.369s-.608-1.368-1.357-1.368H8.143c-.75 0-1.357.612-1.357 1.368 0 .756.607 1.369 1.357 1.369h16.286zm0-5.474c.75 0 1.357-.613 1.357-1.369 0-.755-.608-1.368-1.357-1.368H8.143c-.75 0-1.357.613-1.357 1.368 0 .756.607 1.369 1.357 1.369h16.286z"/>
    </defs>
    <g fill="none" fill-rule="evenodd" transform="translate(1 1)">
        <mask id="grammarb" fill="#fff">
            <use xlink:href="#grammara"/>
        </mask>
        <use fill="#fff" fill-rule="nonzero" xlink:href="#grammara"/>
        <g fill="#fff" mask="url(#grammarb)">
            <path d="M-6-5h49v49H-6z"/>
        </g>
    </g>
</svg>
