<svg xmlns="http://www.w3.org/2000/svg" width="17" height="20" viewBox="0 0 17 20">
    <path fill="#C5CDD7" fill-rule="nonzero" d="M17 9.697a1.828 1.828 0 0 0-1.82-1.835H1.82C.815 7.862 0 8.683 0 9.697v8.468C0 19.178.815 20 1.82 20h13.36c1.005 0 1.82-.822 1.82-1.835V9.697zm-7.66 4.716l.325 2.303a.69.69 0 0 1-.159.549.678.678 0 0 1-.517.236H8.01a.678.678 0 0 1-.515-.237.69.69 0 0 1-.158-.548l.326-2.307a.595.595 0 0 0-.226-.528 1.607 1.607 0 0 1-.496-1.606 1.592 1.592 0 0 1 2.546-.847c.377.305.596.766.595 1.253.006.457-.184.894-.52 1.2a.598.598 0 0 0-.224.532zm-7.134-9.01h-.003C2.7 2.288 5.368 0 8.496 0c3.13 0 5.795 2.289 6.294 5.402a.905.905 0 0 1-.208.72.89.89 0 0 1-.677.312h-1.063a.894.894 0 0 1-.871-.714A3.549 3.549 0 0 0 8.498 2.85c-1.687 0-3.14 1.2-3.472 2.869a.894.894 0 0 1-.872.714H3.092a.89.89 0 0 1-.678-.311.905.905 0 0 1-.208-.72z"/>
</svg>
