<?xml version="1.0" encoding="UTF-8"?>
<svg width="41px" height="41px" viewBox="0 0 41 41" version="1.1" xmlns="http://www.w3.org/2000/svg" xmlns:xlink="http://www.w3.org/1999/xlink">
    <!-- Generator: Sketch 51.3 (57544) - http://www.bohemiancoding.com/sketch -->
    <title>Artboard 2 Copy 4</title>
    <desc>Created with Sketch.</desc>
    <defs></defs>
    <g id="Artboard-2-Copy-4" stroke="none" stroke-width="1" fill="none" fill-rule="evenodd">
        <path d="M34.6779167,12.1428624 C32.5545048,12.1465608 30.516774,11.3198073 29.0139646,9.84486895 C27.5111552,8.36993058 26.6666633,6.36791506 26.6666667,4.28018885 L26.6666667,3.01965393 C26.6564237,2.67151456 26.8668531,2.35362963 27.1947679,2.22187821 C27.5226828,2.09012678 27.8993238,2.17213539 28.14,2.42769002 L36.5833333,10.7082205 C36.8356405,10.9491596 36.9109543,11.3179974 36.7727811,11.6360119 C36.634608,11.9540263 36.3114918,12.1555217 35.96,12.1428624 L34.6779167,12.1428624 Z M34.6779167,14.928575 C36.5149418,14.9362445 38.0000166,16.4025855 38,18.2087515 L38,32.1373141 C38.0000156,36.4716027 34.4325329,39.9884705 30.0241667,39.9999876 L12.01125,39.9999876 C9.88783815,40.003686 7.85010736,39.1769325 6.34729793,37.7019942 C4.8444885,36.2270558 3.99999667,34.2250403 4,32.1373141 L4,8.86268594 C3.99999667,6.77495973 4.8444885,4.77294421 6.34729793,3.29800584 C7.85010736,1.82306747 9.88783815,0.996313991 12.01125,1.00001235 L20.51125,1.00001235 C22.3482752,1.00768185 23.8333499,2.47402293 23.8333333,4.28018885 C23.8333309,7.10673137 24.9763338,9.81730301 27.010496,11.8146636 C29.0446581,13.8120243 31.8030578,14.9322722 34.6779167,14.928575 Z M9,26.0692342 C9,26.7998942 9.28343004,27.5006283 9.78793874,28.017283 C10.2924474,28.5339376 10.9767081,28.8241912 11.6901911,28.8241912 L12.3381934,28.8241912 C13.23732,28.8250736 14.1194393,29.0752338 14.8909295,29.5481215 L18.4254872,31.7038251 C19.0714056,32.0838656 19.8657085,32.08449 20.5121959,31.7054655 C21.1586833,31.3264411 21.5603135,30.6246616 21.5673163,29.8618247 L21.5673163,18.1341535 C21.5603135,17.3713166 21.1586833,16.6695371 20.5121959,16.2905126 C19.8657085,15.9114882 19.0714056,15.9121126 18.4254872,16.292153 L14.8909295,18.4478566 C14.1182952,18.9214447 13.234726,19.1716311 12.3342661,19.171787 L11.6901911,19.171787 C10.2044396,19.171787 9,20.4052232 9,21.926744 L9,26.0692342 Z M23.9865247,16.0025809 C23.767553,15.9845826 23.5512276,16.0613139 23.3900381,16.2141566 C23.2288486,16.3669993 23.1375267,16.5819845 23.1382308,16.8069479 L23.1382308,18.415682 C23.1326102,18.8115751 23.409154,19.1527819 23.7901604,19.220049 C26.11891,19.5526066 27.8520192,21.5921105 27.8520192,24 C27.8520192,26.4078895 26.11891,28.4473934 23.7901604,28.779951 C23.409154,28.8472181 23.1326102,29.1884249 23.1382308,29.584318 L23.1382308,31.1930521 C23.1375267,31.4180155 23.2288486,31.6330007 23.3900381,31.7858434 C23.5512276,31.9386861 23.767553,32.0154174 23.9865247,31.9974191 C27.9758531,31.5574121 31,28.1089975 31,24 C31,19.8910025 27.9758531,16.4425879 23.9865247,16.0025809 Z M23.8019422,25.4579152 C24.3551433,25.1936486 24.708765,24.6251247 24.708765,24 C24.708765,23.3748753 24.3551433,22.8063514 23.8019422,22.5420848 C23.6544844,22.4768207 23.4848109,22.4922667 23.3509068,22.5831443 C23.2170027,22.6740219 23.1369968,22.8280275 23.1382308,22.9925303 L23.1382308,25.0034479 C23.1356511,25.168661 23.2151092,25.3239277 23.3492381,25.4157707 C23.483367,25.5076136 23.65384,25.5234838 23.8019422,25.4579152 Z" id="Mask" fill="#007EFF" fill-rule="nonzero"></path>
    </g>
</svg>