<svg xmlns="http://www.w3.org/2000/svg" width="30" height="30" viewBox="0 0 30 30">
    <g fill="none" fill-rule="nonzero">
        <path d="M0 0h30v30H0z"/>
        <g fill="#8E9AA9">
            <path d="M11.421 14.989c0 1.116.536 2.162 1.436 2.803a.461.461 0 0 1-.11.81c-2.264.762-3.973 2.67-4.51 5.033-.085.396.011.81.262 1.127.25.316.628.5 1.027.5h10.527c.4 0 .779-.182 1.03-.499.251-.316.348-.731.262-1.128-.537-2.365-2.25-4.274-4.518-5.034a.461.461 0 0 1-.105-.809 3.445 3.445 0 0 0 1.436-3.086c-.077-1.891-1.647-3.36-3.507-3.283-1.86.078-3.307 1.674-3.23 3.566z"/>
            <path d="M7.699 13.465c-2.266.761-3.977 2.67-4.514 5.033-.085.397.01.811.261 1.127.25.317.628.5 1.028.5h2.884c.384.003.75-.168.998-.467.394-.484.839-.923 1.326-1.31a1.359 1.359 0 0 0 .383-1.549 5.214 5.214 0 0 1 .152-3.967 5.084 5.084 0 0 1 2.888-2.672 3.426 3.426 0 0 0-.828-2.598 3.312 3.312 0 0 0-2.443-1.134c-1.485-.04-2.821.912-3.289 2.346a3.455 3.455 0 0 0 1.26 3.878.461.461 0 0 1-.106.813zM21.775 12.656A3.445 3.445 0 0 0 23.21 9.57c-.077-1.891-1.648-3.361-3.508-3.283-1.86.078-3.306 1.674-3.23 3.565v.313a5.085 5.085 0 0 1 2.883 2.677 5.215 5.215 0 0 1 .145 3.966 1.359 1.359 0 0 0 .383 1.545c.483.379.925.81 1.318 1.284.249.312.624.492 1.02.488h2.883c.4.002.78-.182 1.03-.498.252-.316.349-.731.263-1.129-.538-2.365-2.25-4.273-4.518-5.033a.461.461 0 0 1-.105-.809z"/>
        </g>
    </g>
</svg>
