<svg xmlns="http://www.w3.org/2000/svg" width="24" height="24" viewBox="0 0 24 24">
    <path fill="#838F9F" fill-rule="nonzero" d="M7.766 3h2.96c.572 0 1.035.485 1.035 1.083v1.051c-.001.597-.465 1.08-1.035 1.08h-1.62c-.57.002-1.033.487-1.033 1.083v9.406c0 .598.464 1.083 1.036 1.083h1.617c.572 0 1.035.485 1.035 1.083v1.051c-.001.597-.465 1.08-1.035 1.08h-2.96C6.238 21 5 19.705 5 18.107V5.893C5 4.295 6.238 3 7.766 3zm10.348 13.596a.334.334 0 0 1-.24.105.334.334 0 0 1-.242-.105l-1.257-1.317a.365.365 0 0 1 0-.505l1.202-1.257a.143.143 0 0 0 .027-.149.132.132 0 0 0-.12-.085h-6.208a.35.35 0 0 1-.34-.354V11.07a.35.35 0 0 1 .34-.357h6.208a.132.132 0 0 0 .12-.085.143.143 0 0 0-.027-.15l-1.202-1.256a.365.365 0 0 1 0-.505l1.26-1.314a.334.334 0 0 1 .241-.105c.09 0 .178.038.241.105l3.522 3.686c.231.242.361.569.361.91 0 .341-.13.668-.36.91l-3.526 3.686z"/>
</svg>
