<svg xmlns="http://www.w3.org/2000/svg" width="83" height="18" viewBox="0 0 83 18">
    <g fill="none" fill-rule="evenodd">
        <path fill="#000" d="M73.934 6.886c-.737 0-1.217.35-1.549.874v-.724H71.12v5.97h1.279V9.659c0-.987.418-1.537 1.254-1.537.258 0 .528.038.799.15l.393-1.224a2.693 2.693 0 0 0-.91-.162zm-4.424.15h-2.09v-1.81h-1.29v1.81h-1.193v1.186h1.192v2.723c0 1.386.53 2.21 2.041 2.21.553 0 1.192-.174 1.598-.461l-.369-1.112c-.38.225-.799.337-1.13.337-.64 0-.849-.4-.849-.999V8.222h2.09V7.036zm-5.59.474c-.614-.411-1.463-.624-2.397-.624-1.487 0-2.446.724-2.446 1.91 0 .975.713 1.574 2.028 1.762l.602.087c.701.1 1.033.287 1.033.625 0 .462-.467.724-1.34.724-.885 0-1.524-.287-1.954-.624l-.603 1.011c.701.525 1.586.775 2.545.775 1.696 0 2.68-.812 2.68-1.949 0-1.049-.775-1.598-2.053-1.786l-.602-.087c-.554-.075-.996-.187-.996-.587 0-.437.418-.7 1.118-.7.75 0 1.476.288 1.832.513l.553-1.05zM53.607 9.496c.135-.862.652-1.448 1.561-1.448.824 0 1.352.524 1.488 1.448h-3.05zm4.376.525c-.012-1.861-1.143-3.135-2.79-3.135-1.721 0-2.926 1.274-2.926 3.135 0 1.898 1.254 3.135 3.012 3.135.885 0 1.696-.225 2.41-.837l-.628-.962c-.492.4-1.118.624-1.709.624-.823 0-1.573-.387-1.757-1.46h4.364c.012-.163.024-.325.024-.5zm20.399-1.914c-.262 0-.505.047-.73.14-.225.094-.42.225-.583.393-.164.169-.293.37-.386.605a2.064 2.064 0 0 0-.142.776c0 .282.047.541.142.776.093.235.222.436.386.604.164.169.358.3.583.393.225.094.468.14.73.14.262 0 .505-.046.73-.14a1.761 1.761 0 0 0 .976-.997c.094-.235.14-.494.14-.776 0-.283-.046-.541-.14-.776a1.76 1.76 0 0 0-.976-.997 1.883 1.883 0 0 0-.73-.14zm0-1.228c.454 0 .874.08 1.26.24.387.16.722.38 1.004.661.282.28.503.612.663.994.16.383.24.798.24 1.247a3.2 3.2 0 0 1-.24 1.246c-.16.383-.38.714-.663.995-.282.28-.617.5-1.003.66-.387.16-.807.24-1.261.24-.454 0-.874-.08-1.26-.24-.388-.16-.721-.38-1.001-.66-.28-.28-.5-.612-.66-.995a3.208 3.208 0 0 1-.239-1.246c0-.449.08-.864.24-1.247.159-.382.379-.714.659-.994s.613-.501 1-.66c.387-.16.807-.24 1.26-.24zm-32.113 3.142c0-1.05.677-1.91 1.783-1.91 1.057 0 1.77.823 1.77 1.91 0 1.086-.713 1.91-1.77 1.91-1.106 0-1.783-.861-1.783-1.91zm4.758 0V7.036h-1.279v.724c-.406-.537-1.02-.874-1.856-.874-1.647 0-2.938 1.311-2.938 3.135 0 1.823 1.29 3.135 2.938 3.135.836 0 1.45-.338 1.856-.875v.725h1.279V10.02zm-7.204 2.985V9.259c0-1.411-.885-2.36-2.31-2.373-.75-.012-1.525.225-2.066 1.062-.406-.662-1.045-1.062-1.942-1.062-.627 0-1.242.187-1.721.887v-.737h-1.278v5.97h1.29v-3.31c0-1.037.566-1.586 1.438-1.586.849 0 1.279.562 1.279 1.574v3.322h1.29v-3.31c0-1.037.59-1.586 1.439-1.586.872 0 1.29.562 1.29 1.574v3.322h1.291zm38.665-.285v.094h.085c.02 0 .035-.004.046-.012.012-.008.018-.02.018-.036a.039.039 0 0 0-.018-.035.082.082 0 0 0-.046-.011h-.085zm.086-.066c.044 0 .078.01.103.03.024.02.036.047.036.082 0 .03-.01.053-.03.072a.138.138 0 0 1-.081.035l.113.133h-.088l-.105-.132h-.034v.132h-.074v-.352h.16zm-.022.472c.04 0 .077-.007.112-.023a.296.296 0 0 0 .092-.48.29.29 0 0 0-.204-.086.289.289 0 0 0-.292.294.296.296 0 0 0 .177.272.285.285 0 0 0 .115.023zm0-.674a.368.368 0 0 1 .268.111.38.38 0 0 1 .081.415.387.387 0 0 1-.202.202.374.374 0 0 1-.419-.082.382.382 0 0 1-.11-.267.376.376 0 0 1 .382-.379z"/>
        <path fill="#7673C0" d="M10.467 16.038h7.731V1.923h-7.73z"/>
        <path fill="#EB001B" d="M10.958 8.98a9.013 9.013 0 0 1 3.375-7.057A8.71 8.71 0 0 0 8.873.004C3.993.004.038 4.024.038 8.981c0 4.957 3.955 8.976 8.835 8.976a8.71 8.71 0 0 0 5.46-1.92 9.013 9.013 0 0 1-3.375-7.056"/>
        <path fill="#00A1DF" d="M28.352 14.54v-.345h-.09l-.103.237-.103-.237h-.09v.344h.064v-.26l.096.224h.066l.096-.224v.26h.064zm-.567 0v-.287h.114v-.058h-.292v.058h.115v.286h.063zM28.628 8.98c0 4.958-3.956 8.977-8.835 8.977a8.708 8.708 0 0 1-5.46-1.92 9.013 9.013 0 0 0 3.374-7.056 9.013 9.013 0 0 0-3.374-7.058 8.708 8.708 0 0 1 5.46-1.919c4.88 0 8.835 4.02 8.835 8.977"/>
    </g>
</svg>
