<svg xmlns="http://www.w3.org/2000/svg" width="101" height="18" viewBox="0 0 101 18">
    <g fill="none" fill-rule="evenodd">
        <path fill="#FF5F00" d="M10.48 16.038h7.74V1.923h-7.74z"/>
        <path fill="#EB001B" d="M10.97 8.98a9.008 9.008 0 0 1 3.38-7.057A8.727 8.727 0 0 0 8.883.004C3.997.004.037 4.023.037 8.981c0 4.957 3.96 8.976 8.846 8.976a8.727 8.727 0 0 0 5.467-1.92 9.009 9.009 0 0 1-3.38-7.056"/>
        <path fill="#F79E1B" d="M28.387 14.543v-.348h-.09l-.103.24-.103-.24h-.09v.348h.064v-.263l.096.227h.066l.097-.227v.263h.063zm-.568 0v-.289h.115v-.059h-.292v.06h.114v.288h.063zm.844-5.562c0 4.957-3.96 8.976-8.846 8.976a8.728 8.728 0 0 1-5.467-1.92 9.009 9.009 0 0 0 3.379-7.056 9.008 9.008 0 0 0-3.38-7.058A8.728 8.728 0 0 1 19.818.004c4.886 0 8.846 4.019 8.846 8.977z"/>
        <path fill="#000" d="M46.332 9.02c0-1.05.677-1.911 1.785-1.911 1.058 0 1.772.824 1.772 1.91 0 1.087-.714 1.911-1.772 1.911-1.108 0-1.785-.861-1.785-1.91zm4.763 0V6.034h-1.28v.724c-.406-.537-1.021-.874-1.859-.874-1.649 0-2.941 1.311-2.941 3.134 0 1.824 1.292 3.135 2.941 3.135.838 0 1.453-.337 1.86-.874v.724h1.28V9.02zm43.227 0c0-1.05.677-1.911 1.785-1.911 1.059 0 1.773.824 1.773 1.91 0 1.087-.714 1.911-1.773 1.911-1.108 0-1.785-.861-1.785-1.91zm6.196 2.701v.094h.085c.02 0 .035-.004.047-.012.011-.008.017-.02.017-.036a.04.04 0 0 0-.017-.035.083.083 0 0 0-.047-.011h-.085zm.086-.066c.044 0 .079.01.103.03.024.02.036.048.036.082 0 .03-.01.053-.029.072a.136.136 0 0 1-.082.035l.114.133h-.09l-.104-.132h-.034v.132h-.074v-.352h.16zm-.022.473a.275.275 0 0 0 .204-.087.29.29 0 0 0 .084-.209.296.296 0 0 0-.175-.271.29.29 0 0 0-.405.272.3.3 0 0 0 .084.208.297.297 0 0 0 .208.087zm0-.675a.373.373 0 0 1 .268.111.384.384 0 0 1 .112.268.369.369 0 0 1-.112.267.392.392 0 0 1-.12.082.375.375 0 0 1-.42-.082.386.386 0 0 1-.11-.267.382.382 0 0 1 .232-.35.383.383 0 0 1 .15-.029zM99.086 9.02V3.637h-1.28v3.122c-.407-.537-1.022-.874-1.859-.874-1.65 0-2.942 1.311-2.942 3.134 0 1.824 1.293 3.135 2.942 3.135.837 0 1.452-.337 1.859-.874v.724h1.28V9.02zM66.973 7.046c.825 0 1.354.525 1.49 1.449H65.41c.135-.862.652-1.449 1.563-1.449zm.025-1.161c-1.723 0-2.93 1.273-2.93 3.134 0 1.899 1.256 3.135 3.016 3.135.886 0 1.698-.225 2.412-.836l-.628-.962c-.492.4-1.12.624-1.71.624-.825 0-1.576-.387-1.76-1.461h4.37a6.47 6.47 0 0 0 .024-.5c-.013-1.86-1.145-3.134-2.794-3.134zm15.447 3.134c0-1.049.677-1.91 1.785-1.91 1.058 0 1.772.824 1.772 1.91 0 1.087-.714 1.911-1.772 1.911-1.108 0-1.785-.861-1.785-1.91zm4.763 0V6.035h-1.28v.724c-.406-.537-1.021-.874-1.859-.874-1.649 0-2.941 1.311-2.941 3.134 0 1.824 1.292 3.135 2.941 3.135.838 0 1.453-.337 1.86-.874v.724h1.28V9.02zm-11.988 0c0 1.811 1.243 3.135 3.139 3.135.886 0 1.476-.2 2.116-.712l-.615-1.049c-.48.35-.985.537-1.539.537-1.021-.012-1.772-.762-1.772-1.91 0-1.15.75-1.899 1.772-1.911.554 0 1.06.187 1.539.537l.615-1.05c-.64-.511-1.23-.711-2.116-.711-1.896 0-3.14 1.324-3.14 3.134zm16.493-3.134c-.739 0-1.218.35-1.55.874v-.724h-1.269v5.97h1.28V8.656c0-.986.42-1.536 1.256-1.536.258 0 .53.037.8.15l.394-1.224a2.699 2.699 0 0 0-.911-.162zm-34.291.624c-.616-.412-1.465-.624-2.4-.624-1.49 0-2.45.724-2.45 1.91 0 .975.714 1.574 2.03 1.761l.604.088c.702.1 1.034.287 1.034.624 0 .463-.468.725-1.341.725-.887 0-1.527-.288-1.958-.625l-.603 1.012c.702.525 1.588.774 2.548.774 1.699 0 2.683-.812 2.683-1.948 0-1.05-.775-1.599-2.055-1.786l-.603-.087c-.554-.075-.997-.188-.997-.587 0-.437.418-.7 1.12-.7.75 0 1.477.288 1.834.512l.554-1.049zm16.505-.624c-.738 0-1.218.35-1.55.874v-.724h-1.268v5.97h1.28V8.656c0-.986.418-1.536 1.255-1.536.259 0 .53.037.8.15l.394-1.224a2.698 2.698 0 0 0-.91-.162zm-10.917.15h-2.093V4.224h-1.292v1.81H58.43v1.187h1.194v2.723c0 1.386.53 2.21 2.043 2.21.554 0 1.194-.175 1.6-.462l-.37-1.112c-.38.225-.8.338-1.131.338-.64 0-.85-.4-.85-1V7.222h2.093V6.035zm-19.128 5.97V8.257c0-1.412-.886-2.36-2.313-2.373-.751-.013-1.527.224-2.068 1.061-.407-.661-1.047-1.061-1.945-1.061-.628 0-1.243.187-1.723.886v-.736h-1.28v5.97h1.292v-3.31c0-1.037.566-1.586 1.44-1.586.85 0 1.28.562 1.28 1.573v3.322h1.293v-3.31c0-1.036.59-1.585 1.44-1.585.874 0 1.292.562 1.292 1.573v3.322h1.292z"/>
    </g>
</svg>
