<svg xmlns="http://www.w3.org/2000/svg" width="30" height="30" viewBox="0 0 30 30">
    <path fill="#8E9AA9" fill-rule="nonzero" d="M17.571 23.876a3.504 3.504 0 0 1-5.142 0 .182.182 0 0 1 .132-.303h4.878a.182.182 0 0 1 .132.303zm6.886-3.703l.29.29a.864.864 0 0 1 .253.61v.207a.864.864 0 0 1-.864.864H5.864A.864.864 0 0 1 5 21.277v-.204c0-.229.091-.449.254-.61l.289-.29a7.902 7.902 0 0 0 2.314-5.588v-2.44a7.141 7.141 0 0 1 7.386-7.14c3.882.131 6.9 3.445 6.9 7.327v2.253c0 2.096.832 4.106 2.314 5.588z"/>
</svg>
