<svg xmlns="http://www.w3.org/2000/svg" width="133" height="57" viewBox="0 0 133 57">
    <path fill="#FFF" fill-rule="evenodd" d="M127.296 56.624c-.598 0-1.564-.323-2.162-.6v-2.358h.23c.23 1.11.69 2.59 2.07 2.59.783 0 1.38-.556 1.38-1.341 0-1.942-3.633-1.48-3.633-3.883 0-1.433 1.333-2.173 2.621-2.173.645 0 1.289.184 1.841.462l-.093 1.988h-.23c-.23-.925-.598-2.034-1.702-2.034-.69 0-1.242.555-1.242 1.202 0 1.988 3.728 1.525 3.728 3.975 0 1.525-1.428 2.172-2.808 2.172zm-6.9 0c-.645 0-1.611-.323-2.163-.6v-2.358h.23c.184 1.11.69 2.59 2.07 2.59.782 0 1.335-.556 1.335-1.341 0-1.942-3.635-1.48-3.635-3.883 0-1.433 1.38-2.173 2.668-2.173.644 0 1.243.184 1.794.462l-.09 1.988h-.232c-.23-.925-.551-2.034-1.702-2.034a1.22 1.22 0 0 0-1.196 1.202c0 1.988 3.68 1.525 3.68 3.975 0 1.525-1.38 2.172-2.76 2.172zm-1.84-35.084c-.461 0-.968.047-1.381.185v14.376c0 2.495.92 3.051 3.358 3.051 5.015 0 7.729-3.745 7.729-8.506 0-5.823-4.14-9.106-9.707-9.106zm-2.9 34.9h-6.21v-.231c.368-.047 1.012-.139 1.242-.463.368-.462.276-2.588.276-3.19V50.94c-.046-1.155-.276-1.525-1.519-1.664v-.232h6.304l-.046 2.034h-.277c-.276-1.756-1.426-1.663-2.852-1.663h-.322l-.046 2.912c.414-.046 1.749 0 2.07-.185.184-.139.276-.648.322-.879h.277c0 .97-.047 1.942-.047 2.913h-.23c-.092-.925-.23-1.202-1.196-1.202h-1.196v1.34c.046 1.202 0 1.757 1.38 1.757 1.426 0 2.117-1.064 2.485-2.31l.23.045c-.184.925-.323 1.803-.644 2.634zm-8.786-.046c-1.61-.37-2.623-2.496-3.36-3.79.921-.233 1.565-.556 1.565-1.619 0-1.248-1.197-1.618-2.254-1.664v3.698c0 .463.045.924.045 1.387 0 1.387.277 1.664 1.657 1.803v.23h-4.37v-.23c1.195-.186 1.425-.463 1.425-1.665.047-.508.047-1.017.047-1.479 0-.694-.047-1.433-.047-2.126 0-1.248-.276-1.48-1.472-1.664v-.232c1.012-.045 2.07-.045 3.128-.045 1.243 0 3.313.23 3.313 1.895 0 .97-.736 1.478-1.519 1.802.645 1.295 2.117 3.282 3.636 3.56v.278c-.599-.047-1.197 0-1.794-.139zm-11.365-2.959v-.277c1.196-.185 1.748-.463 1.748-1.803 0-1.525-1.426-1.988-2.667-2.034v5.085c.046 1.432.275 1.664 1.701 1.803v.23h-4.462v-.23c.322-.047.966-.139 1.241-.463.323-.462.277-2.358.277-2.958 0-.647.139-2.728-.415-3.143-.275-.185-.78-.278-1.103-.324v-.278c1.012 0 2.07-.045 3.128-.045 1.288 0 3.773.37 3.773 2.08 0 1.895-1.703 2.265-3.221 2.357zm25.718-13.451l-10.581.046h-.966c-2.485-.046-3.45-.185-5.567-1.525-3.634-2.22-5.245-4.808-7.822-8.182 2.071 0 5.061-2.266 5.061-4.438 0-3.143-3.083-4.484-5.797-4.484l-.322.047c0 4.807-.092 9.66-.092 14.514 0 3.051.921 3.051 3.773 3.42v.648h-6.994c.046-5.038.184-10.03.184-15.023 0-1.294.139-3.513-1.563-3.606-.322-.046-.645-.046-.966-.046l.045-.555c2.393-.092 4.832-.184 7.223-.184 3.037 0 7.96.554 7.96 4.576 0 2.82-2.393 4.53-4.877 5.224 1.84 2.126 7.453 8.967 10.536 8.967 2.852 0 3.726-1.295 3.726-4.068V25.47c0-3.005-.506-3.745-3.542-4.207v-.555c2.668 0 5.29-.092 7.958-.092 6.626 0 13.435 1.802 13.435 9.707 0 5.593-5.567 9.661-10.812 9.661zm-36.208 9.66c-.413.278-.69.74-.92 1.11-.23.416-1.38 2.543-1.38 2.773 0 1.664-.23 2.45 1.61 2.682v.23h-4.509v-.23c1.842-.232 1.61-.925 1.61-2.589-.413-.74-2.023-3.605-2.76-4.068-.23-.138-.643-.231-.919-.277v-.232h3.772v.232c-.321.092-.874.185-.874.601 0 .508 1.426 2.357 1.748 2.958.368-.601 1.288-2.311 1.288-2.958 0-.37-.367-.509-.736-.601v-.232h3.037v.232c-.368.092-.69.139-.967.37zm-8.418 1.757c-.37-1.941-.875-1.756-2.67-1.802 0 1.063-.045 2.126-.045 3.189 0 .647-.093 2.59.368 3.05.322.232.92.324 1.288.371v.23H71.03v-.23c.368-.047 1.104-.186 1.334-.509.367-.416.275-2.403.275-2.958V49.6c-1.886.046-2.391-.185-2.713 1.849l-.277-.047c.092-.786.138-1.571.184-2.358.782.047 1.61.094 2.393.094h2.116c.783 0 1.61 0 2.392-.094v.324c0 .648.092 1.34.138 2.034h-.275zm5.474-27.04c-1.334-2.128-3.267-3.515-5.796-3.515-5.245 0-6.902 4.715-6.902 9.199 0 2.127.368 4.53 1.565 6.379 1.334 1.988 3.358 3.375 5.842 3.375 5.384 0 6.763-4.715 6.763-9.245 0-2.08-.367-4.437-1.472-6.194zM76.46 40.722c-6.211 0-10.859-4.067-10.859-10.446 0-6.38 4.739-10.309 10.859-10.309 6.35 0 10.857 4.022 10.857 10.494 0 6.286-4.83 10.261-10.857 10.261zM63.99 56.44v-.23c.367-.092.965-.139 1.241-.509.322-.416.277-2.357.277-2.912 0-.647.091-2.728-.415-3.143-.23-.185-.828-.324-1.103-.37v-.232h4.278v.232c-1.703.277-1.565 1.017-1.565 2.588v1.48c0 .369.047.693.047 1.063.046 1.294.185 1.617 1.564 1.803v.23h-4.324zm-4.418.185c-.643 0-1.61-.323-2.162-.6v-2.358h.23c.185 1.11.69 2.59 2.07 2.59.782 0 1.335-.556 1.335-1.341 0-1.942-3.635-1.48-3.635-3.883 0-1.433 1.38-2.173 2.669-2.173.644 0 1.242.184 1.795.462l-.093 1.988h-.23c-.23-.925-.552-2.034-1.702-2.034a1.22 1.22 0 0 0-1.197 1.202c0 1.988 3.681 1.525 3.681 3.975 0 1.525-1.38 2.172-2.76 2.172zm-5.198-.23c-1.564-.37-2.576-2.496-3.313-3.79.92-.233 1.519-.556 1.519-1.619 0-1.248-1.15-1.618-2.209-1.664v5.085c.046 1.387.277 1.664 1.703 1.803v.23h-4.417v-.23c1.196-.186 1.472-.463 1.472-1.665v-3.605c-.047-1.248-.276-1.48-1.518-1.664v-.232c1.058-.045 2.116-.045 3.128-.045 1.288 0 3.359.23 3.359 1.895 0 .97-.736 1.478-1.565 1.802.644 1.295 2.117 3.282 3.635 3.56v.278c-.598-.047-1.196 0-1.794-.139zm-8.925.045h-6.212v-.23c.368-.047 1.012-.139 1.243-.463.368-.462.275-2.588.275-3.19V50.94c-.045-1.155-.275-1.525-1.518-1.664v-.232h6.304l-.047 2.034h-.276c-.276-1.756-1.426-1.663-2.852-1.663h-.323L42 52.326c.414-.046 1.794 0 2.07-.185.184-.139.276-.648.322-.879h.276c0 .97-.046 1.942-.046 2.913h-.23c-.092-.925-.276-1.202-1.197-1.202H42v1.34c.045 1.202 0 1.757 1.38 1.757 1.426 0 2.116-1.064 2.485-2.31l.23.045c-.185.925-.323 1.803-.644 2.634zm-8.098-6.702c-.644.6-2.944 6.101-3.45 7.165h-.047l-2.806-6.38c-.368-.83-.598-1.108-1.518-1.247v-.232h4.049v.232c-.415.092-1.197.185-1.197.694 0 .646 1.61 4.067 1.979 4.807.368-.878 1.84-4.114 1.84-4.761 0-.509-.92-.648-1.288-.74v-.232h3.404v.232c-.322.092-.69.185-.966.462zM24.424 56.44v-.23c.414-.092 1.012-.139 1.289-.509.32-.416.275-2.357.275-2.912 0-.647.092-2.728-.414-3.143-.23-.185-.828-.324-1.15-.37v-.232h4.324v.232c-1.702.277-1.564 1.017-1.564 2.588v1.48c0 .369.047.693.047 1.063.046 1.294.184 1.617 1.563 1.803v.23h-4.37zm38.692-31.71c-.46-3.328-3.68-3.235-6.302-3.235h-1.841v7.812h2.163c1.15 0 2.3 0 3.403-.185v4.576h-.46c-.091-2.265-.69-3.096-2.943-3.096-.737 0-1.473.045-2.163.045v4.946c0 3.421.46 3.375 3.68 3.93v.508H39.56l-5.29-8.32c-.875 1.108-3.681 4.899-3.681 6.148 0 1.017 1.38 1.433 2.163 1.663v.51h-8.374v-.648c3.497-.23 4.51-1.619 6.35-4.345l2.943-4.207-3.174-5.224c-1.38-2.264-3.175-4.206-5.981-4.344v-.647h6.35l4.876 7.626c.783-1.155 3.036-4.437 3.036-5.685 0-1.063-1.287-1.202-2.07-1.294v-.647h8.05v.647c-3.311.277-4.6 1.71-6.302 4.344-.736 1.11-1.473 2.265-2.208 3.376l4.14 6.47c1.289 1.988 2.806 3.93 5.383 3.93 2.945 0 6.12-.14 6.12-3.93v-10.63c0-2.867-.645-3.329-3.405-3.699v-.508h14.906l.276 4.16-.552-.047zm-41.13 24.962c-.553.554-.369 5.778-.369 6.748h-.368c-1.656-1.895-3.542-3.651-5.244-5.546l-.046.046v1.432c0 .648 0 1.295.046 1.942.046 1.572.46 1.757 1.932 1.896v.23h-4.049v-.23c.415-.047.92-.186 1.197-.509.46-.6.368-3.883.368-4.76 0-.232 0-.417-.093-.648-.506-.647-.828-.878-1.656-1.017v-.232h2.439c.782 1.25 3.772 4.069 4.923 5.363v-1.802c0-.51 0-1.018-.046-1.527-.047-1.478-.553-1.71-1.933-1.802v-.232c1.289 0 2.577.047 3.91 0v.232c-.367.046-.781.139-1.011.416zM17.89 24.314c-1.334-2.08-3.267-3.468-5.797-3.468-5.245 0-6.901 4.715-6.901 9.153 0 2.173.367 4.576 1.564 6.38 1.335 2.033 3.359 3.42 5.842 3.42 5.338 0 6.765-4.761 6.765-9.245 0-2.08-.37-4.437-1.473-6.24zM7.908 56.717c-1.887 0-3.221-.323-3.45-2.45-.139-.97-.186-1.987-.323-2.958-.092-.74-.23-1.85-1.196-1.895l-.46-.047v-.324c1.012 0 2.024 0 2.99-.045.091 1.802.184 3.606.368 5.362.093 1.155 1.058 1.71 2.117 1.71.966 0 1.84-.324 2.07-1.34.275-1.156.46-2.635.46-3.837 0-.924-.506-1.572-1.473-1.572v-.278h3.865v.278c-3.68-.046 0 7.396-4.968 7.396zm4.37-15.994c-6.257 0-10.858-4.067-10.858-10.492 0-6.333 4.739-10.309 10.858-10.309 6.35 0 10.858 4.022 10.858 10.54 0 6.24-4.831 10.261-10.858 10.261zM5.53 12.46h-.164L2.7 3.27C2.29 2.07 2.24 1.529.883 1.15V.904h4.63v.248c-1.996.295-1.587 1.133-1.194 2.482l1.717 5.835 2.57-6.872c-.327-1.002-.867-1.264-1.85-1.445V.903h4.779v.248c-1.784.246-1.571 1.019-1.277 1.971l2.079 6.511 1.292-3.7c.278-.821 1.015-2.877 1.015-3.665 0-.805-.737-.92-1.637-1.117V.903h4.27v.248c-.982.065-1.472.624-1.815 1.495l-1.146 3.14-2.405 6.674h-.18L8.819 3.32l-3.29 9.14zM19.75 1.545a.84.84 0 0 1-.834.838.84.84 0 0 1-.834-.838.84.84 0 0 1 .834-.839.84.84 0 0 1 .835.839zm-2.667 10.537v-.246c1.211-.181 1.26-.379 1.277-1.66V7.034c0-.69.016-.904-.998-1.495v-.164l2.077-.725.181.066v5.458c0 1.348.066 1.48 1.276 1.66v.247h-3.813zm6.857-2.893c0 1.463.017 2.384 1.8 2.384.327 0 .655-.034.965-.116l.065.264c-.817.312-1.685.526-2.584.526-1.588 0-1.506-.839-1.506-2.105V5.671h-1.096l-.082-.115 2.29-2.285h.148v1.71h2.585v.69H23.94v3.518zm5.58.986c0 1.348.066 1.48 1.276 1.661v.247h-3.812v-.247c1.21-.18 1.26-.38 1.276-1.66V2.661c0-.69.016-.904-.801-1.495v-.165l1.88-.723.181.066v5.392c.867-.51 1.766-1.085 2.814-1.085 1.963 0 2.061 1.627 2.061 2.597v2.926c0 1.348.066 1.48 1.278 1.661v.247H31.86v-.247c1.21-.18 1.26-.38 1.276-1.66V8.283c0-1.15.049-2.777-1.947-2.777-.671 0-1.129.213-1.669.558v4.11zm17.788.707c-.737.839-1.751 1.364-2.88 1.364-1.996 0-3.37-1.676-3.37-3.6 0-2.301 1.995-3.994 4.205-3.994.523 0 1.783.065 1.783.822 0 .361-.393.756-.768.756-.574 0-1.163-1.07-1.98-1.07-1.31 0-1.931 1.53-1.931 2.648 0 2.12 1.439 3.469 3.06 3.469.67 0 1.144-.247 1.684-.641l.197.246zm4.976 1.365c-2.242 0-4.025-1.43-4.025-3.765 0-2.269 1.848-3.83 4.04-3.83 2.226 0 4.01 1.446 4.01 3.765 0 2.235-1.866 3.83-4.025 3.83zm-.017-7.234c-1.766 0-2.487 1.841-2.487 3.353 0 1.53.851 3.52 2.617 3.52 1.654 0 2.39-1.892 2.39-3.305 0-1.513-.736-3.568-2.52-3.568zm6.104 2.022c0-.69.016-.904-.801-1.495v-.165l1.947-.723.18.065-.13 1.2c.93-.69 1.83-1.265 2.878-1.265 1.964 0 2.061 1.627 2.061 2.597v2.926c0 1.348.066 1.48 1.277 1.66v.247h-3.812v-.246c1.21-.181 1.26-.379 1.276-1.661v-1.89c0-1.151.05-2.778-1.947-2.778-.67 0-1.13.214-1.669.706v3.962c0 1.348.066 1.48 1.276 1.66v.247h-3.812v-.246c1.21-.181 1.259-.379 1.276-1.661v-3.14zM68.779 9.19c0 1.463.017 2.384 1.8 2.384.327 0 .655-.034.965-.116l.065.264c-.817.312-1.685.526-2.584.526-1.588 0-1.506-.839-1.506-2.105V5.671h-1.096l-.082-.115 2.29-2.285h.148v1.71h2.585v.69H68.78v3.518zm4.762-1.299c-.13 1.71 1.031 3.305 2.88 3.305.85 0 1.44-.379 1.93-1.037l.246.181c-.622 1.068-1.735 1.908-3.01 1.908-2.03 0-3.437-1.677-3.437-3.65 0-2.12 1.473-3.946 3.682-3.946 1.471 0 2.453.938 2.519 2.417h-4.745l-.065.822zm3.256-1.265c-.147-.757-.606-1.612-1.472-1.612-.933 0-1.49.921-1.67 1.743l3.142-.131zm3.83.41c0-.69.016-.904-.801-1.495v-.165l1.947-.723.18.065-.13 1.2c.93-.69 1.83-1.265 2.878-1.265 1.964 0 2.062 1.627 2.062 2.597v2.926c0 1.348.065 1.48 1.276 1.66v.247h-3.812v-.246c1.21-.181 1.26-.379 1.276-1.661v-1.89c0-1.151.05-2.778-1.947-2.778-.67 0-1.13.214-1.669.706v3.962c0 1.348.066 1.48 1.276 1.66v.247h-3.812v-.246c1.21-.181 1.259-.379 1.276-1.661v-3.14zM91.035 9.19c0 1.463.017 2.384 1.8 2.384.327 0 .655-.034.965-.116l.065.264c-.817.312-1.685.526-2.584.526-1.588 0-1.506-.839-1.506-2.105V5.671h-1.096l-.082-.115 2.29-2.285h.148v1.71h2.585v.69h-2.585v3.518zm7.708-3.682l1.326-.773c.017-.97.13-1.858.654-2.697.622-.985 1.636-1.758 2.83-1.758.639 0 1.9.263 1.9 1.118 0 .525-.46.707-.901.69-.393-.558-1.08-1.298-1.8-1.298-1.325 0-1.423 2.268-1.423 3.205v.986h2.127v.69h-2.127v4.505c0 1.348.065 1.48 1.57 1.66v.247h-4.14v-.247c1.244-.18 1.293-.378 1.31-1.66V5.671h-1.326v-.164zm7.282 4.668c0 1.348.065 1.48 1.636 1.661v.247h-4.091v-.247c1.13-.18 1.178-.38 1.194-1.66v-3.14c0-.691.017-.905-.8-1.497v-.164l1.945-.723.181.066-.065 1.94h.033c.36-.872 1.275-2.006 2.307-2.006.457 0 .834.295.834.756 0 .443-.474.855-.851 1.035-.278-.213-.687-.575-1.047-.542-1.392.131-1.276 2.367-1.276 2.614v1.66zm7.953 2.072c-2.242 0-4.025-1.43-4.025-3.765 0-2.269 1.848-3.83 4.04-3.83 2.226 0 4.01 1.446 4.01 3.765 0 2.235-1.866 3.83-4.025 3.83zm-.017-7.234c-1.766 0-2.487 1.841-2.487 3.353 0 1.53.851 3.52 2.617 3.52 1.654 0 2.39-1.892 2.39-3.305 0-1.513-.736-3.568-2.52-3.568zm7.381 5.162c0 1.348.066 1.48 1.146 1.661v.247h-3.6v-.247c1.129-.18 1.178-.38 1.194-1.66v-3.14c0-.691.017-.905-.801-1.497v-.164l1.947-.723.18.066-.13 1.265c.75-.657 1.667-1.33 2.715-1.33.851 0 1.701.492 1.996 1.33.77-.657 1.652-1.33 2.716-1.33 2.421 0 2.127 2.48 2.127 3.368v2.154c0 1.348.066 1.48 1.146 1.661v.247h-3.6v-.247c1.128-.18 1.178-.38 1.195-1.66V8.432c0-.625.262-2.926-1.85-2.926-.703 0-1.161.312-1.636.805v3.863c0 1.348.065 1.48 1.145 1.661v.247h-3.6v-.247c1.13-.18 1.18-.38 1.195-1.66V8.432c0-.888.196-2.926-1.832-2.926-.703 0-1.195.344-1.653.822v3.846z"/>
</svg>
