<svg xmlns="http://www.w3.org/2000/svg" width="104" height="104" viewBox="0 0 104 104">
    <g fill="none" fill-rule="nonzero">
        <circle cx="52" cy="52" r="52" fill="#E6F3FF"/>
        <path fill="#007EFF" d="M65.969 33H39.03C35.701 33 33 35.7 33 39.031V65.97C33 69.299 35.7 72 39.031 72H65.97C69.299 72 72 69.3 72 65.969V39.03C72 35.701 69.3 33 65.969 33z"/>
        <path fill="#FFF" d="M46.929 62.396c0 .689-.559 1.247-1.247 1.247h-3.078a1.247 1.247 0 0 1-1.247-1.247v-3.078c0-.688.558-1.247 1.247-1.247h3.071a1.247 1.247 0 0 1 1.254 1.247v3.078z" opacity=".487"/>
        <path fill="#FFF" d="M46.929 54.04c0 .688-.559 1.246-1.247 1.246h-3.078a1.247 1.247 0 0 1-1.247-1.247v-3.078c0-.689.558-1.247 1.247-1.247h3.071a1.247 1.247 0 0 1 1.254 1.247v3.078z"/>
        <path fill="#FFF" d="M46.929 45.682c0 .688-.559 1.247-1.247 1.247h-3.078a1.247 1.247 0 0 1-1.247-1.247v-3.078c0-.689.558-1.247 1.247-1.247h3.071a1.247 1.247 0 0 1 1.254 1.247v3.078z" opacity=".642"/>
        <path fill="#FFF" d="M63.643 61.338a.912.912 0 0 1-.912.912H50.627a.912.912 0 0 1-.913-.912v-.961c0-.504.409-.913.913-.913H62.73c.503 0 .912.409.912.913v.96z" opacity=".487"/>
        <path fill="#FFF" d="M63.643 52.98a.912.912 0 0 1-.912.913H50.627a.912.912 0 0 1-.913-.912v-.962c0-.503.409-.912.913-.912H62.73c.503 0 .912.409.912.912v.962z"/>
        <path fill="#FFF" d="M63.643 44.623a.912.912 0 0 1-.912.913H50.627a.912.912 0 0 1-.913-.913v-.96c0-.505.409-.913.913-.913H62.73c.503 0 .912.408.912.912v.961z" opacity=".642"/>
    </g>
</svg>
