<?xml version="1.0" encoding="UTF-8"?>
<svg width="41px" height="41px" viewBox="0 0 41 41" version="1.1" xmlns="http://www.w3.org/2000/svg" xmlns:xlink="http://www.w3.org/1999/xlink">
    <!-- Generator: Sketch 51.3 (57544) - http://www.bohemiancoding.com/sketch -->
    <title>Artboard 2 Copy 5</title>
    <desc>Created with Sketch.</desc>
    <defs></defs>
    <g id="Artboard-2-Copy-5" stroke="none" stroke-width="1" fill="none" fill-rule="evenodd">
        <path d="M34.6779167,12.1428624 C32.5545048,12.1465608 30.516774,11.3198073 29.0139646,9.84486895 C27.5111552,8.36993058 26.6666633,6.36791506 26.6666667,4.28018885 L26.6666667,3.01965393 C26.6564237,2.67151456 26.8668531,2.35362963 27.1947679,2.22187821 C27.5226828,2.09012678 27.8993238,2.17213539 28.14,2.42769002 L36.5833333,10.7082205 C36.8356405,10.9491596 36.9109543,11.3179974 36.7727811,11.6360119 C36.634608,11.9540263 36.3114918,12.1555217 35.96,12.1428624 L34.6779167,12.1428624 Z M34.6779167,14.928575 C36.5149418,14.9362445 38.0000166,16.4025855 38,18.2087515 L38,32.1373141 C38.0000156,36.4716027 34.4325329,39.9884705 30.0241667,39.9999876 L12.01125,39.9999876 C9.88783815,40.003686 7.85010736,39.1769325 6.34729793,37.7019942 C4.8444885,36.2270558 3.99999667,34.2250403 4,32.1373141 L4,8.86268594 C3.99999667,6.77495973 4.8444885,4.77294421 6.34729793,3.29800584 C7.85010736,1.82306747 9.88783815,0.996313991 12.01125,1.00001235 L20.51125,1.00001235 C22.3482752,1.00768185 23.8333499,2.47402293 23.8333333,4.28018885 C23.8333309,7.10673137 24.9763338,9.81730301 27.010496,11.8146636 C29.0446581,13.8120243 31.8030578,14.9322722 34.6779167,14.928575 Z M12.2,28.784 C12.2,29.4555783 12.7444217,30 13.416,30 C14.0875783,30 14.632,29.4555783 14.632,28.784 L14.632,25.984 L17.16,25.984 C17.8213366,25.984 18.4133307,25.8773344 18.936,25.664 C19.4586693,25.4506656 19.8693318,25.1680018 20.168,24.816 C20.4666682,24.4639982 20.6906659,24.0826687 20.84,23.672 C20.9893341,23.2613313 21.064,22.8373355 21.064,22.4 C21.064,21.3866616 20.7466698,20.5333368 20.112,19.84 C19.4773302,19.1466632 18.49334,18.8 17.16,18.8 L12.2,18.8 L12.2,28.784 Z M17.256,23.696 L14.632,23.696 L14.632,21.104 L17.256,21.104 C17.7040022,21.104 18.0293323,21.2346654 18.232,21.496 C18.4346677,21.7573346 18.536,22.058665 18.536,22.4 C18.536,22.7520018 18.4293344,23.0559987 18.216,23.312 C18.0026656,23.5680013 17.6826688,23.696 17.256,23.696 Z M22.488,30 L29.696,30 C30.3366503,30 30.856,29.4806503 30.856,28.84 C30.856,28.1993497 30.3366503,27.68 29.696,27.68 L24.92,27.68 L24.92,25.376 L26.904,25.376 C27.540232,25.376 28.056,24.860232 28.056,24.224 C28.056,23.587768 27.540232,23.072 26.904,23.072 L24.92,23.072 L24.92,21.104 L29.384,21.104 C30.020232,21.104 30.536,20.588232 30.536,19.952 C30.536,19.315768 30.020232,18.8 29.384,18.8 L22.488,18.8 L22.488,30 Z" id="Combined-Shape" fill="#007EFF" fill-rule="nonzero"></path>
    </g>
</svg>