<?xml version="1.0" encoding="UTF-8"?>
<svg width="41px" height="41px" viewBox="0 0 41 41" version="1.1" xmlns="http://www.w3.org/2000/svg" xmlns:xlink="http://www.w3.org/1999/xlink">
    <!-- Generator: Sketch 51.3 (57544) - http://www.bohemiancoding.com/sketch -->
    <title>Artboard 2 Copy 2</title>
    <desc>Created with Sketch.</desc>
    <defs></defs>
    <g id="Artboard-2-Copy-2" stroke="none" stroke-width="1" fill="none" fill-rule="evenodd">
        <path d="M34.66375,12.1428571 C30.2498493,12.1390133 26.6737483,8.61989777 26.67375,4.28017857 L26.67375,3.01964286 C26.6729033,2.68099027 26.8800086,2.37531339 27.1981847,2.24560397 C27.5163608,2.11589455 27.8826999,2.18779791 28.1258333,2.42767857 L36.53375,10.7082143 C36.7810172,10.9447842 36.8583106,11.3048399 36.7293717,11.6194784 C36.6004329,11.9341169 36.2908437,12.1409126 35.9458333,12.1428571 L34.66375,12.1428571 Z M34.66375,14.9285714 C36.50631,14.9285714 38,16.3971574 38,18.20875 L38,32.1373214 C38,36.4797589 34.4195838,40 30.0029167,40 L11.9970833,40 C7.58041617,40 4,36.4797589 4,32.1373214 L4,8.86267857 C4,4.5202411 7.58041617,1 11.9970833,1 L20.4970833,1 C22.3396433,1 23.8333333,2.46858597 23.8333333,4.28017857 C23.8333333,10.1611236 28.682276,14.9285714 34.66375,14.9285714 Z M20.9504167,16.0846429 C20.8857374,16.489761 21.0059193,16.9023166 21.2789276,17.2123416 C21.5519358,17.5223665 21.9500251,17.6983536 22.3670833,17.6933929 L28.1683333,17.6933929 C28.3110924,17.6930323 28.4344422,17.5952329 28.4650509,17.4581369 C28.4956596,17.3210409 28.4253134,17.1814374 28.2958333,17.1223214 C27.4442198,16.7882821 26.6759136,16.2775601 26.0433333,15.625 C25.6133676,15.1721987 25.0087331,14.9192317 24.37875,14.9285714 L22.445,14.9285714 C21.7257191,14.9009827 21.0924442,15.3908256 20.9504167,16.0846429 Z M9.68083333,16.3214286 L9.68083333,21.8928571 C9.68083333,22.6621109 10.3150966,23.2857143 11.0975,23.2857143 L16.7004167,23.2857143 C17.4828201,23.2857143 18.1170833,22.6621109 18.1170833,21.8928571 L18.1170833,16.3214286 C18.1170833,15.5521748 17.4828201,14.9285714 16.7004167,14.9285714 L11.0975,14.9285714 C10.3150966,14.9285714 9.68083333,15.5521748 9.68083333,16.3214286 Z M28.03375,34.4285714 C28.8161534,34.4285714 29.4504167,33.804968 29.4504167,33.0357143 C29.4504167,32.2664605 28.8161534,31.6428571 28.03375,31.6428571 L13.8670833,31.6428571 C13.0846799,31.6428571 12.4504167,32.2664605 12.4504167,33.0357143 C12.4504167,33.804968 13.0846799,34.4285714 13.8670833,34.4285714 L28.03375,34.4285714 Z M30.8670833,28.8571429 C31.6494867,28.8571429 32.28375,28.2335395 32.28375,27.4642857 C32.28375,26.695032 31.6494867,26.0714286 30.8670833,26.0714286 L11.03375,26.0714286 C10.2513466,26.0714286 9.61708333,26.695032 9.61708333,27.4642857 C9.61708333,28.2335395 10.2513466,28.8571429 11.03375,28.8571429 L30.8670833,28.8571429 Z M30.8670833,23.2857143 C31.6494867,23.2857143 32.28375,22.6621109 32.28375,21.8928571 C32.28375,21.1236034 31.6494867,20.5 30.8670833,20.5 L22.3670833,20.5 C21.5846799,20.5 20.9504167,21.1236034 20.9504167,21.8928571 C20.9504167,22.6621109 21.5846799,23.2857143 22.3670833,23.2857143 L30.8670833,23.2857143 Z" id="Mask" fill="#007EFF" fill-rule="nonzero"></path>
    </g>
</svg>