<svg xmlns="http://www.w3.org/2000/svg" width="32" height="31" viewBox="0 0 32 31">
    <path fill="#838F9F" fill-rule="nonzero" d="M3.56 30.4h24.88c1.966 0 3.56-1.631 3.56-3.644V10.65c0-2.012-1.594-3.644-3.56-3.644H16v3.135c.003 2.052-1 3.97-2.669 5.106L9.44 17.901a4.563 4.563 0 0 1-5.143 0L.383 15.246c-.137-.093-.257-.199-.383-.298v11.808C0 28.77 1.594 30.4 3.56 30.4zm16.954-18.072c0-.895.709-1.62 1.583-1.62h4.989c.874 0 1.583.725 1.583 1.62v2.34c0 .894-.71 1.62-1.583 1.62h-4.989c-.874 0-1.583-.726-1.583-1.62v-2.34zM8.617 24.55h13.029c.63 0 1.143.524 1.143 1.17 0 .646-.512 1.17-1.143 1.17H8.617c-.631 0-1.143-.524-1.143-1.17 0-.646.512-1.17 1.143-1.17zm-4.137 0c.631 0 1.143.524 1.143 1.17 0 .646-.512 1.17-1.143 1.17s-1.143-.524-1.143-1.17c0-.646.512-1.17 1.143-1.17zM1.651 13.298A3.809 3.809 0 0 1 0 10.368V2.97a.707.707 0 0 1 .634-.69 13.192 13.192 0 0 0 3.429-.948A14.524 14.524 0 0 0 6.286.162a1.087 1.087 0 0 1 1.143 0c.713.447 1.462.83 2.24 1.147 1.096.47 2.25.788 3.428.947.354.042.62.35.617.714v7.17a3.82 3.82 0 0 1-1.651 3.158L8.17 15.954a2.32 2.32 0 0 1-2.628 0L1.65 13.298zm6.686-7.556L7.103 7.005l-.76.772-.4-.304a1.121 1.121 0 0 0-1.135-.14c-.375.164-.637.521-.686.936-.048.415.123.825.45 1.076l1.177.941c.455.348 1.09.3 1.491-.11l2.714-2.779a1.19 1.19 0 0 0 0-1.655 1.125 1.125 0 0 0-1.617 0z"/>
</svg>
