<svg xmlns="http://www.w3.org/2000/svg" width="66" height="66" viewBox="0 0 66 66">
    <g fill="#007EFF" fill-rule="evenodd">
        <circle cx="33" cy="33" r="33" opacity=".1"/>
        <path fill-rule="nonzero" d="M50.75 45h-32.5c-.69 0-1.25.672-1.25 1.5s.56 1.5 1.25 1.5h32.5c.69 0 1.25-.672 1.25-1.5s-.56-1.5-1.25-1.5zM19.552 23c-.857 0-1.552.744-1.552 1.663V41.75c0 .69.522 1.25 1.167 1.25h4.666c.645 0 1.167-.56 1.167-1.25V24.663c0-.919-.695-1.663-1.552-1.663h-3.896z" opacity=".5"/>
        <path fill-rule="nonzero" d="M31.552 18c-.857 0-1.552.744-1.552 1.663V41.75c0 .69.522 1.25 1.167 1.25h4.666c.645 0 1.167-.56 1.167-1.25V19.663c0-.919-.695-1.663-1.552-1.663h-3.896z"/>
        <path fill-rule="nonzero" d="M46.448 29h-3.896c-.857 0-1.552.744-1.552 1.663V42.75c0 .69.522 1.25 1.167 1.25h4.666c.645 0 1.167-.56 1.167-1.25V30.663c0-.919-.695-1.663-1.552-1.663z" opacity=".5"/>
    </g>
</svg>
