<?xml version="1.0" encoding="UTF-8"?>
<svg width="24px" height="24px" viewBox="0 0 24 24" version="1.1" xmlns="http://www.w3.org/2000/svg" xmlns:xlink="http://www.w3.org/1999/xlink">
    <!-- Generator: sketchtool 50.2 (55047) - http://www.bohemiancoding.com/sketch -->
    <title>F487760C-E147-4C42-974E-5C17AFF6AF55</title>
    <desc>Created with sketchtool.</desc>
    <defs></defs>
    <g id="Symbols" stroke="none" stroke-width="1" fill="none" fill-rule="evenodd">
        <g id="UI/icon/genel-ilerleme-sold" fill="#FFFFFF" fill-rule="nonzero">
            <g id="Genel-ilerleme" transform="translate(1.000000, 3.000000)">
                <path d="M20.8421053,16.9498681 L0.771929825,16.9498681 C0.345604755,16.9498681 0,17.2948096 0,17.7203166 C0,18.1458236 0.345604755,18.4907652 0.771929825,18.4907652 L20.8421053,18.4907652 C21.2684303,18.4907652 21.6140351,18.1458236 21.6140351,17.7203166 C21.6140351,17.2948096 21.2684303,16.9498681 20.8421053,16.9498681 Z" id="Shape"></path>
                <path d="M2.57052632,3.0817942 C2.00351397,3.0817942 1.54385965,3.54056648 1.54385965,4.10649077 L1.54385965,14.6385224 C1.54385965,15.0640294 1.8894644,15.408971 2.31578947,15.408971 L5.40350877,15.408971 C5.82983384,15.408971 6.1754386,15.0640294 6.1754386,14.6385224 L6.1754386,4.10649077 C6.1754386,3.54056648 5.71578427,3.0817942 5.14877193,3.0817942 L2.57052632,3.0817942 Z" id="Shape"></path>
                <path d="M9.51789474,6.84295775e-16 C8.95088239,0 8.49122807,0.458772281 8.49122807,1.02469657 L8.49122807,14.6385224 C8.49122807,15.0640294 8.83683282,15.408971 9.26315789,15.408971 L12.3508772,15.408971 C12.7772023,15.408971 13.122807,15.0640294 13.122807,14.6385224 L13.122807,1.02469657 C13.122807,0.458772281 12.6631527,1.36859155e-15 12.0961404,0 L9.51789474,6.84295775e-16 Z" id="Shape"></path>
                <path d="M19.0435088,6.16358839 L16.4652632,6.16358839 C15.8982508,6.16358839 15.4385965,6.62236067 15.4385965,7.18828496 L15.4385965,14.6385224 C15.4385965,15.0640294 15.7842012,15.408971 16.2105263,15.408971 L19.2982456,15.408971 C19.7245707,15.408971 20.0701754,15.0640294 20.0701754,14.6385224 L20.0701754,7.18828496 C20.0701754,6.62236067 19.6105211,6.16358839 19.0435088,6.16358839 Z" id="Shape"></path>
            </g>
        </g>
    </g>
</svg>