<?xml version="1.0" encoding="UTF-8"?>
<svg width="35px" height="39px" viewBox="0 0 35 39" version="1.1" xmlns="http://www.w3.org/2000/svg" xmlns:xlink="http://www.w3.org/1999/xlink">
    <!-- Generator: sketchtool 50.2 (55047) - http://www.bohemiancoding.com/sketch -->
    <title>1B0E9D6B-03B1-44A8-A32F-3B91F7727D86</title>
    <desc>Created with sketchtool.</desc>
    <defs></defs>
    <g id="Ogrenci-Dashboard" stroke="none" stroke-width="1" fill="none" fill-rule="evenodd">
        <g id="02-Ogrenci-Rapor-Genel-ilerleme-acik-Ders-pop-up" transform="translate(-983.000000, -270.000000)">
            <g id="beceri-icon" transform="translate(983.000000, 270.000000)">
                <path d="M8.45454545,11.1428571 C10.0109843,11.1428571 11.2727273,12.3900639 11.2727273,13.9285714 C11.2727273,15.4670789 10.0109843,16.7142857 8.45454545,16.7142857 C6.89810661,16.7142857 5.63636364,15.4670789 5.63636364,13.9285714 C5.63636364,12.3900639 6.89810661,11.1428571 8.45454545,11.1428571 Z" id="Path" fill="#00C9FF"></path>
                <path d="M31.2573198,13.9285714 C31.7218651,13.9265651 32.1396825,13.6737692 32.317155,13.2873296 C32.4946275,12.90089 32.3970739,12.4563235 32.0697006,12.1596429 L20.5338927,1.76892857 C20.2032962,1.47336368 19.7075383,1.38600181 19.2775277,1.54753342 C18.8475171,1.70906503 18.5678177,2.08772403 18.5687048,2.50714286 L18.5687048,7.56321429 C18.5729745,11.0798302 21.7412432,13.9285735 25.6480235,13.9285714 L31.2573198,13.9285714 Z" id="Shape" fill="#007EFF" fill-rule="nonzero"></path>
                <path d="M13.0290412,6.18552828e-16 L7.07931871,6.18552828e-16 C3.16951895,6.18552828e-16 0,2.85298548 0,6.37232143 L0,32.6276786 C0,36.1470145 3.16951895,39 7.07931871,39 L26.9633068,39 C30.8731065,39 34.0426255,36.1470145 34.0426255,32.6276786 L34.0426255,18.915 C34.0426255,17.6995791 32.9480157,16.7142857 31.597746,16.7142857 L25.6480235,16.7142857 C20.0290217,16.7142857 15.4739207,12.6140935 15.4739207,7.55625 L15.4739207,2.20071429 C15.4739207,0.985293347 14.3793108,0 13.0290412,6.18552828e-16 Z" id="Shape" fill="#00C9FF" fill-rule="nonzero" opacity="0.299999982"></path>
                <path d="M18.5687048,33.4285714 L7.73696034,33.4285714 C6.88235929,33.4285714 6.18956827,32.804968 6.18956827,32.0357143 C6.18956827,31.2664605 6.88235929,30.6428571 7.73696034,30.6428571 L18.5687048,30.6428571 C19.4233058,30.6428571 20.1160969,31.2664605 20.1160969,32.0357143 C20.1160969,32.804968 19.4233058,33.4285714 18.5687048,33.4285714 Z" id="Path" fill="#00C9FF"></path>
                <path d="M26.3056651,27.8571429 L7.73696034,27.8571429 C6.88235929,27.8571429 6.18956827,27.2335395 6.18956827,26.4642857 C6.18956827,25.695032 6.88235929,25.0714286 7.73696034,25.0714286 L26.3056651,25.0714286 C27.1602662,25.0714286 27.8530572,25.695032 27.8530572,26.4642857 C27.8530572,27.2335395 27.1602662,27.8571429 26.3056651,27.8571429 Z" id="Path" fill="#007EFF"></path>
                <path d="M26.3056651,19.5 C27.1602662,19.5 27.8530572,20.1236034 27.8530572,20.8928571 C27.8530572,21.6621109 27.1602662,22.2857143 26.3056651,22.2857143 L7.73696034,22.2857143 C6.88235929,22.2857143 6.18956827,21.6621109 6.18956827,20.8928571 C6.18956827,20.1236034 6.88235929,19.5 7.73696034,19.5 L26.3056651,19.5 Z" id="Path" fill="#007EFF"></path>
            </g>
        </g>
    </g>
</svg>