<svg xmlns="http://www.w3.org/2000/svg" width="66" height="66" viewBox="0 0 66 66">
    <g fill="#007EFF" fill-rule="evenodd">
        <circle cx="33" cy="33" r="33" opacity=".1"/>
        <path fill-rule="nonzero" d="M27.763 31.672H38.07c1.437 0 2.6-1.179 2.6-2.633v-9.225c0-1.454-1.163-2.633-2.6-2.633H27.763c-1.437 0-2.6 1.179-2.6 2.633v9.225c0 1.454 1.163 2.633 2.6 2.633zm.507-4.16l3.579-7.246c.202-.41.615-.668 1.067-.668.453 0 .866.259 1.068.668l3.58 7.246c.19.386.163.846-.072 1.206a1.19 1.19 0 0 1-1.068.54 1.193 1.193 0 0 1-.996-.666l-.269-.537h-1.05a1.2 1.2 0 0 1-1.258-1.141 1.204 1.204 0 0 1 1.127-1.274l-1.062-2.143-2.51 5.083a1.187 1.187 0 0 1-1.602.54 1.215 1.215 0 0 1-.534-1.62v.012z"/>
        <g fill-rule="nonzero">
            <path d="M25.759 39.52a.6.6 0 0 0-.597-.603H22.18v1.208h2.982a.6.6 0 0 0 .597-.604z"/>
            <path d="M18.815 48.577h10.308c1.436 0 2.6-1.178 2.6-2.632v-9.226c0-1.454-1.164-2.632-2.6-2.632H18.815c-1.436 0-2.6 1.178-2.6 2.632v9.226c0 1.454 1.164 2.632 2.6 2.632zm.979-7.245V37.71a1.2 1.2 0 0 1 1.193-1.207h4.175c1.647 0 2.983 1.351 2.983 3.019 0 .653-.21 1.289-.597 1.811.387.523.597 1.158.597 1.811 0 1.668-1.336 3.02-2.983 3.02h-4.175a1.2 1.2 0 0 1-1.193-1.208v-3.623z"/>
            <path d="M25.759 43.143a.6.6 0 0 0-.597-.603H22.18v1.207h2.982a.6.6 0 0 0 .597-.604z"/>
        </g>
        <path fill-rule="nonzero" d="M47.018 34.087H36.71c-1.436 0-2.6 1.178-2.6 2.632v9.226c0 1.454 1.164 2.632 2.6 2.632h10.308c1.436 0 2.6-1.178 2.6-2.632v-9.226c0-1.454-1.164-2.632-2.6-2.632zm-4.558 9.66h2.201a1.2 1.2 0 0 1 1.193 1.208 1.2 1.2 0 0 1-1.193 1.207h-2.2c-2.636 0-4.773-2.162-4.773-4.83s2.137-4.83 4.772-4.83h2.201a1.2 1.2 0 0 1 1.193 1.207 1.2 1.2 0 0 1-1.193 1.208h-2.2c-1.318 0-2.387 1.081-2.387 2.415s1.069 2.415 2.386 2.415z"/>
    </g>
</svg>
