<?xml version="1.0" encoding="UTF-8"?>
<svg width="22px" height="14px" viewBox="0 0 22 14" version="1.1" xmlns="http://www.w3.org/2000/svg" xmlns:xlink="http://www.w3.org/1999/xlink">
    <!-- Generator: sketchtool 50.2 (55047) - http://www.bohemiancoding.com/sketch -->
    <title>1EADF236-7650-4327-8A39-CAA453F7E1BA</title>
    <desc>Created with sketchtool.</desc>
    <defs></defs>
    <g id="Ogrenci-Dashboard" stroke="none" stroke-width="1" fill="none" fill-rule="evenodd">
        <g id="Dashboard-UI-KIT" transform="translate(-305.000000, -2566.000000)" fill="#838F9F" fill-rule="nonzero">
            <g id="Group-4" transform="translate(32.000000, 2548.000000)">
                <path d="M284,31.9999987 C279.538844,32.0020117 275.420476,29.6374415 273.215407,25.8080007 C272.928198,25.3073336 272.928198,24.6945478 273.215407,24.1938806 C275.4212,20.3649009 279.538892,18 284,18 C288.461108,18 292.5788,20.3649009 294.784593,24.1938806 C295.071802,24.6945478 295.071802,25.3073336 294.784593,25.8080007 C292.579524,29.6374415 288.461156,32.0020117 284,31.9999987 Z M284.634156,28.0483216 C283.803128,28.2167256 282.938438,28.0471353 282.235665,27.577909 C281.532892,27.1086827 281.051409,26.3794633 280.900119,25.5551867 C280.873267,25.4194907 280.908724,25.2790224 280.996933,25.1716462 C281.085142,25.06427 281.217023,25.0010384 281.357026,24.9989959 L283.432804,24.9989959 C283.746058,24.9989959 284,24.7482395 284,24.4389157 L284,22.3891777 C284.002068,22.2509305 284.066103,22.1207038 284.174844,22.0336014 C284.283584,21.9464991 284.425837,21.9114866 284.563257,21.9380019 C286.049577,22.2033847 287.136149,23.4728801 287.153454,24.9642575 C287.170759,26.455635 286.113929,27.7493807 284.634156,28.0483216 Z M284.614462,20.3705552 C283.158087,20.1817422 281.695588,20.6722507 280.656938,21.6978714 C279.618287,22.7234921 279.121547,24.1676447 279.312759,25.6057495 C279.631847,28.0056123 281.755898,29.7663866 284.204786,29.6610926 C286.653674,29.5557986 288.614693,27.6193799 288.721325,25.2012126 C288.827956,22.7830454 287.044813,20.6856402 284.614462,20.3705552 Z" id="Combined-Shape-Copy"></path>
            </g>
        </g>
    </g>
</svg>