<?xml version="1.0" encoding="UTF-8"?>
<svg width="19px" height="22px" viewBox="0 0 19 22" version="1.1" xmlns="http://www.w3.org/2000/svg" xmlns:xlink="http://www.w3.org/1999/xlink">
    <!-- Generator: sketchtool 50.2 (55047) - http://www.bohemiancoding.com/sketch -->
    <title>44337FA1-9828-46CB-8246-B03F74A2F61C</title>
    <desc>Created with sketchtool.</desc>
    <defs></defs>
    <g id="Symbols" stroke="none" stroke-width="1" fill="none" fill-rule="evenodd">
        <g id="UI/icon/harcanan-zaman-solid" transform="translate(-3.000000, -1.000000)" fill="#FFFFFF" fill-rule="nonzero">
            <g id="harcanan-zaman" transform="translate(3.000000, 1.000000)">
                <path d="M-2.86710227e-15,12.3271768 C-2.86710227e-15,17.4332606 4.14725705,21.5725594 9.26315789,21.5725594 C14.3790587,21.5725594 18.5263158,17.4332606 18.5263158,12.3271768 C18.5263158,7.22109297 14.3790587,3.0817942 9.26315789,3.0817942 C4.14725705,3.0817942 -2.86710227e-15,7.22109297 -2.86710227e-15,12.3271768 Z M8.29824561,8.47493404 C8.29824561,7.94305031 8.73025156,7.51187335 9.26315789,7.51187335 C9.79606423,7.51187335 10.2280702,7.94305031 10.2280702,8.47493404 L10.2280702,12.6700264 C10.2227725,12.6849818 10.2227725,12.7012979 10.2280702,12.7162533 L12.7908772,15.2741425 C13.034946,15.5177429 13.1302658,15.8727983 13.0409304,16.2055628 C12.951595,16.5383272 12.6911767,16.7982458 12.3577725,16.8874098 C12.0243683,16.9765737 11.6686302,16.8814369 11.4245614,16.6378364 L8.87719298,14.0799472 C8.50208773,13.7065018 8.2922311,13.1988187 8.29438596,12.6700264 L8.29824561,8.47493404 Z" id="Shape"></path>
                <rect id="Rectangle-path" x="6.1754386" y="0" width="6.1754386" height="2.31134565" rx="0.897050019"></rect>
            </g>
        </g>
    </g>
</svg>