<svg xmlns="http://www.w3.org/2000/svg" width="15" height="15" viewBox="0 0 15 15">
    <path fill="#8E9AA9" fill-rule="nonzero" d="M7.5 0a7.5 7.5 0 1 0 0 15 7.5 7.5 0 0 0 0-15zm0 3.214a1.34 1.34 0 1 1 0 2.679 1.34 1.34 0 0 1 0-2.679zm2.143 8.17c0 .222-.18.402-.402.402H5.76a.402.402 0 0 1-.402-.402v-.268c0-.222.18-.402.402-.402.222 0 .402-.18.402-.402v-2.41a.402.402 0 0 0-.402-.402.402.402 0 0 1-.402-.402V6.83c0-.222.18-.401.402-.401h2.678c.222 0 .402.18.402.401v3.482c0 .222.18.402.402.402.222 0 .402.18.402.402v.268z"/>
</svg>
