<svg xmlns="http://www.w3.org/2000/svg" width="20" height="20" viewBox="0 0 20 20">
    <g fill="none" fill-rule="nonzero">
        <circle cx="10" cy="10" r="10" fill="#FFF"/>
        <circle cx="9.994" cy="9.994" r="8.976" fill="#FFF"/>
        <path fill="#D02027" d="M18.457 7A8.982 8.982 0 0 0 10.8 1.054c1.374.754 1.38 17.124 0 17.88a8.982 8.982 0 0 0 7.66-5.956l.01-.026c.323-.926.5-1.92.5-2.957 0-1.05-.182-2.057-.513-2.993z"/>
        <path fill="#DB2727" d="M13.389 7c-.352-2.806-1.215-5.193-2.59-5.946a9.322 9.322 0 0 0-.773-.036h-.033a8.978 8.978 0 0 0-8.466 11.959 8.979 8.979 0 0 0 8.466 5.993h.033c.26-.002.519-.014.774-.037 1.38-.756 2.245-3.16 2.593-5.982.237-1.92.236-4.033-.004-5.95z"/>
        <path fill="#F3F4F5" d="M6.289 10.033a3.305 3.305 0 0 1 4.987-2.845 4.001 4.001 0 1 0 0 5.69 3.305 3.305 0 0 1-4.987-2.845zM13.364 7.871l.822 1.34 1.528-.368-1.02 1.196.822 1.34-1.452-.6-1.02 1.195.122-1.567-1.452-.6 1.528-.368z"/>
    </g>
</svg>
