<svg xmlns="http://www.w3.org/2000/svg" width="12" height="12" viewBox="0 0 12 12">
    <path fill="#FFF" fill-rule="nonzero" d="M6 0a6 6 0 1 0 0 12A6 6 0 0 0 6 0zm3.073 5.398L5.81 8.426a.922.922 0 0 1-.627.24.922.922 0 0 1-.626-.24l-1.63-1.51a.787.787 0 0 1-.254-.668.815.815 0 0 1 .399-.603.954.954 0 0 1 1.124.125l.328.304c.092.085.143.2.143.32 0 .121-.051.237-.143.322a.195.195 0 0 0 0 .29c.086.079.225.079.312 0l.35-.325 2.62-2.428a.954.954 0 0 1 1.124-.125.815.815 0 0 1 .4.603.787.787 0 0 1-.256.667z" opacity=".7"/>
</svg>
