<?xml version="1.0" encoding="UTF-8"?>
<svg width="38px" height="38px" viewBox="0 0 38 38" version="1.1" xmlns="http://www.w3.org/2000/svg" xmlns:xlink="http://www.w3.org/1999/xlink">
    <!-- Generator: sketchtool 50.2 (55047) - http://www.bohemiancoding.com/sketch -->
    <title>76914C87-A5BE-48CD-ABA1-BD8E220AD493</title>
    <desc>Created with sketchtool.</desc>
    <defs></defs>
    <g id="Ogrenci-Dashboard" stroke="none" stroke-width="1" fill="none" fill-rule="evenodd">
        <g id="02-Ogrenci-Rapor-Genel-ilerleme-acik-Ders-pop-up" transform="translate(-985.000000, -530.000000)">
            <g id="dogru-cevap-icon" transform="translate(985.000000, 530.000000)">
                <path d="M28.5,19 C23.2532949,19 19,23.2532949 19,28.5 C19,33.7467051 23.2532949,38 28.5,38 C33.7467051,38 38,33.7467051 38,28.5 C38,25.9804433 36.99911,23.5640812 35.2175144,21.7824856 C33.4359188,20.00089 31.0195567,19 28.5,19 Z" id="Shape" fill="#00C9FF" fill-rule="nonzero" opacity="0.299999982"></path>
                <path d="M33.25,28.0657143 L30.0878571,31.2142857 L29.2125,32.0896429 C28.9363208,32.3660303 28.5616165,32.5213207 28.1708929,32.5213207 C27.7801692,32.5213207 27.4054649,32.3660303 27.1292857,32.0896429 L26.2607143,31.2142857 L24.7135714,29.6671429 C24.3288181,29.2806166 24.3288181,28.655812 24.7135714,28.2692857 L25.2225,27.7603571 C25.6090263,27.3756038 26.2338309,27.3756038 26.6203571,27.7603571 L27.4685714,28.6085714 C27.8550977,28.9933247 28.4799023,28.9933247 28.8664286,28.6085714 L31.3092857,26.1657143 C31.695812,25.780961 32.3206166,25.780961 32.7071429,26.1657143 L33.2160714,26.6746429 C33.4050382,26.8546112 33.5147732,27.1022752 33.521136,27.3631517 C33.5274989,27.6240282 33.4299683,27.8767475 33.25,28.0657143 Z" id="Path" fill="#007EFF"></path>
                <path d="M9.73071429,16.5367857 C7.22073053,16.8296015 4.77651391,17.5358104 2.49714286,18.6267857 C0.978706853,19.3686961 0.0113531706,20.906473 0,22.5964286 C0.110248779,25.1880012 2.27914531,27.2119019 4.87214286,27.1428571 L13.7478571,27.1428571 C15.1449589,27.1604386 16.3908415,26.2665935 16.8217857,24.9375 C17.6169747,22.3454135 19.2493131,20.0902091 21.4632143,18.525 C21.6662629,18.3761305 21.7701938,18.1270745 21.7331933,17.8780327 C21.6961928,17.6289909 21.5243441,17.4209079 21.2867857,17.3375 C20.0177267,16.9729991 18.7222878,16.707559 17.4121429,16.5435714 C16.7658589,16.458249 16.2835195,15.9061738 16.2857143,15.2542857 C16.2815226,14.7757067 16.5427777,14.3341856 16.9642857,14.1075 C20.0289468,12.5317167 21.6165335,9.06277563 20.8058935,5.71343192 C19.9952536,2.3640882 16.9971185,0.00502707351 13.5510714,0.00502707351 C10.1050244,0.00502707351 7.10688928,2.3640882 6.29624934,5.71343192 C5.4856094,9.06277563 7.0731961,12.5317167 10.1378571,14.1075 C10.6381061,14.3712261 10.9111041,14.92755 10.8136215,15.4845936 C10.7161388,16.0416372 10.2704376,16.4721887 9.71035714,16.5503571 L9.73071429,16.5367857 Z" id="Shape" fill="#00C9FF" fill-rule="nonzero"></path>
            </g>
        </g>
    </g>
</svg>