<?xml version="1.0" encoding="UTF-8"?>
<svg width="41px" height="41px" viewBox="0 0 41 41" version="1.1" xmlns="http://www.w3.org/2000/svg" xmlns:xlink="http://www.w3.org/1999/xlink">
    <!-- Generator: Sketch 51.3 (57544) - http://www.bohemiancoding.com/sketch -->
    <title>Artboard 2 Copy 3</title>
    <desc>Created with Sketch.</desc>
    <defs></defs>
    <g id="Artboard-2-Copy-3" stroke="none" stroke-width="1" fill="none" fill-rule="evenodd">
        <path d="M34.6708333,12.1428585 C32.548648,12.1447066 30.5127383,11.3171357 29.0114619,9.84239729 C27.5101855,8.3676589 26.6666658,6.36670002 26.6666667,4.28018114 L26.6666667,3.01964563 C26.6597226,2.67473321 26.8690491,2.36107152 27.1936272,2.23003068 C27.5182053,2.09898983 27.8913228,2.17750338 28.1329167,2.42768143 L36.5833333,10.7082158 C36.836794,10.9500088 36.9117841,11.3207042 36.7717185,11.6394524 C36.6316528,11.9582006 36.3057141,12.1585904 35.9529167,12.1428585 L34.6708333,12.1428585 Z M34.6708333,14.9285723 C36.5106265,14.9324128 38.0000041,16.3998743 38,18.2087504 L38,32.1373196 C38.0000069,36.4743227 34.4282171,39.992314 30.0170833,39.9999969 L12.0041667,39.9999969 C9.88198129,40.001845 7.84607165,39.1742741 6.34479526,37.6995357 C4.84351887,36.2247973 3.99999917,34.2238385 4,32.1373196 L4,8.86268041 C3.99999917,6.77616153 4.84351887,4.77520265 6.34479526,3.30046426 C7.84607165,1.82572588 9.88198129,0.998154976 12.0041667,1.00000309 L20.5041667,1.00000309 C22.3439598,1.00384359 23.8333375,2.47130507 23.8333333,4.28018114 C23.8333327,7.10551712 24.9753635,9.81503303 27.0079929,11.8121941 C29.0406222,13.8093551 31.7972012,14.9304201 34.6708333,14.9285723 Z M13.389,26.0714277 L14.4443333,26.0714277 C14.9353145,26.0714277 15.3333333,26.4694465 15.3333333,26.9604277 L15.3333333,27.9681415 C15.3333333,28.4591227 14.9353145,28.8571415 14.4443333,28.8571415 L13.389,28.8571415 C12.8980189,28.8571415 12.5,28.4591227 12.5,27.9681415 L12.5,26.9604277 C12.5,26.4694465 12.8980189,26.0714277 13.389,26.0714277 Z M32.3333333,30.1037485 L32.3333333,19.2533931 C32.3333677,18.1153199 31.8749365,17.0235605 31.0583333,16.216965 C30.8023585,15.9567701 30.4117615,15.8746074 30.069912,16.0090491 C29.7280624,16.1434907 29.5028489,16.4678376 29.5,16.829822 C29.5000074,17.0656081 29.4042585,17.2916369 29.2340188,17.4577078 C29.0637791,17.6237786 28.8331426,17.7161427 28.5933333,17.7142862 L27.56625,17.7142862 C27.3264333,17.7142935 27.0965407,17.6201537 26.927631,17.4527752 C26.7587213,17.2853967 26.6647783,17.0586365 26.6666667,16.8228577 L26.6666667,15.8130365 C26.6666667,15.3245604 26.2639095,14.9285723 25.7670833,14.9285723 L16.2329167,14.9285723 C15.9943323,14.9285723 15.7655198,15.0217567 15.5968152,15.1876259 C15.4281106,15.3534951 15.3333333,15.578462 15.3333333,15.8130365 L15.3333333,16.829822 C15.3333408,17.0656081 15.2375918,17.2916369 15.0673521,17.4577078 C14.8971124,17.6237786 14.6664759,17.7161427 14.4266667,17.7142862 L13.3995833,17.7142862 C13.1597666,17.7142935 12.9298741,17.6201537 12.7609644,17.4527752 C12.5920547,17.2853967 12.4981117,17.0586365 12.5,16.8228577 C12.4971511,16.4608734 12.2719376,16.1365264 11.930088,16.0020848 C11.5882385,15.8676431 11.1976415,15.9498058 10.9416667,16.2100007 C10.12333,17.0183054 9.66475681,18.1129077 9.66666667,19.2533931 L9.66666667,30.1037485 C9.6666323,31.2418216 10.1250635,32.3335811 10.9416667,33.1401766 C11.1976415,33.4003715 11.5882385,33.4825341 11.930088,33.3480925 C12.2719376,33.2136508 12.4971511,32.8893039 12.5,32.5273195 C12.5,32.0388435 12.9027572,31.6428554 13.3995833,31.6428554 L14.43375,31.6428554 C14.9305762,31.6428554 15.3333333,32.0388435 15.3333333,32.5273195 L15.3333333,33.5441051 C15.3333333,33.7786796 15.4281106,34.0036465 15.5968152,34.1695157 C15.7655198,34.3353849 15.9943323,34.4285692 16.2329167,34.4285692 L25.7670833,34.4285692 C26.0069,34.4285765 26.2367926,34.3344368 26.4057023,34.1670583 C26.574612,33.9996798 26.668555,33.7729196 26.6666667,33.5371408 L26.6666667,32.5273195 C26.6666667,32.0388435 27.0694238,31.6428554 27.56625,31.6428554 L28.6004167,31.6428554 C28.8402334,31.6428481 29.0701259,31.7369878 29.2390356,31.9043663 C29.4079453,32.0717448 29.5018883,32.298505 29.5,32.5342838 C29.5028489,32.8962682 29.7280624,33.2206151 30.069912,33.3550568 C30.4117615,33.4894984 30.8023585,33.4073357 31.0583333,33.1471409 C31.87667,32.3388362 32.3352432,31.2442338 32.3333333,30.1037485 Z M27.5556667,26.0714277 L28.611,26.0714277 C29.1019811,26.0714277 29.5,26.4694465 29.5,26.9604277 L29.5,27.9681415 C29.5,28.4591227 29.1019811,28.8571415 28.611,28.8571415 L27.5556667,28.8571415 C27.0646855,28.8571415 26.6666667,28.4591227 26.6666667,27.9681415 L26.6666667,26.9604277 C26.6666667,26.4694465 27.0646855,26.0714277 27.5556667,26.0714277 Z M13.389,20.5 L14.4443333,20.5 C14.9353145,20.5 15.3333333,20.8980189 15.3333333,21.389 L15.3333333,22.3967139 C15.3333333,22.887695 14.9353145,23.2857138 14.4443333,23.2857138 L13.389,23.2857138 C12.8980189,23.2857138 12.5,22.887695 12.5,22.3967139 L12.5,21.389 C12.5,20.8980189 12.8980189,20.5 13.389,20.5 Z M27.5556667,20.5 L28.611,20.5 C29.1019811,20.5 29.5,20.8980189 29.5,21.389 L29.5,22.3967139 C29.5,22.887695 29.1019811,23.2857138 28.611,23.2857138 L27.5556667,23.2857138 C27.0646855,23.2857138 26.6666667,22.887695 26.6666667,22.3967139 L26.6666667,21.389 C26.6666667,20.8980189 27.0646855,20.5 27.5556667,20.5 Z" id="Mask" fill="#007EFF" fill-rule="nonzero"></path>
    </g>
</svg>