<svg xmlns="http://www.w3.org/2000/svg" width="46" height="14" viewBox="0 0 46 14">
    <g fill="none" fill-rule="evenodd">
        <path fill="#0568CC" d="M16.17 13.799L18.437.236h3.628L19.796 13.8H16.17zM32.952.569l-.491 2.94-.326-.155a6.569 6.569 0 0 0-2.714-.52c-1.42 0-2.077.602-2.078 1.166-.009.637.769 1.053 2.036 1.682 2.094.968 3.06 2.14 3.047 3.685C32.398 12.182 29.922 14 26.111 14c-1.628-.017-3.196-.345-4.041-.723l.507-3.036.466.216c1.193.507 1.965.711 3.417.711 1.043 0 2.161-.416 2.17-1.324.007-.594-.468-1.019-1.882-1.683-1.375-.648-3.199-1.736-3.176-3.685C23.592 1.841 26.117 0 29.703 0c1.405 0 2.533.297 3.25.57zM42.258.25l2.935 13.554h-3.367s-.332-1.559-.441-2.032l-4.646-.007c-.14.367-.762 2.039-.762 2.039h-3.81l5.386-12.43C37.934.49 38.585.25 39.454.25h2.804zm-4.475 8.74h3.011c-.143-.678-.84-3.915-.84-3.915l-.244-1.17c-.183.509-.503 1.33-.482 1.295 0 0-1.145 3.01-1.445 3.79zM13.126.248h3.844l-5.712 13.537-3.838.002L4.172 1.926c2.303 1.176 4.363 3.523 5.024 5.689l.38 1.88 3.55-9.247z"/>
        <path fill="#F79510" d="M6.222 0H.223l-.05.293C4.843 1.466 7.93 4.297 9.214 7.7L7.908 1.195C7.684.297 7.03.03 6.222 0"/>
    </g>
</svg>
