<svg xmlns="http://www.w3.org/2000/svg" width="24" height="24" viewBox="0 0 24 24">
    <g fill="none" fill-rule="evenodd">
        <path d="M0 0h24v24H0z"/>
        <g fill="#FFF" fill-rule="nonzero">
            <path d="M19.593 8.704a.575.575 0 0 0 .405-.978l-5.754-5.748a.576.576 0 0 0-.98.409v2.797a3.528 3.528 0 0 0 3.53 3.52h2.799z"/>
            <path d="M10.5 1H7.532A3.528 3.528 0 0 0 4 4.525v14.523a3.528 3.528 0 0 0 3.532 3.525h9.919a3.528 3.528 0 0 0 3.531-3.525v-7.585c0-.673-.546-1.218-1.22-1.218h-2.967a5.07 5.07 0 0 1-5.076-5.065V2.217C11.72 1.545 11.173 1 10.5 1zM8.632 7.164c.852 0 1.543.69 1.543 1.54 0 .851-.69 1.541-1.543 1.541s-1.544-.69-1.544-1.54c0-.852.69-1.541 1.544-1.541zm4.631 12.327H7.86a.771.771 0 1 1 0-1.541h5.403a.771.771 0 1 1 0 1.54zm3.86-3.082H7.86a.771.771 0 1 1 0-1.54h9.263a.771.771 0 1 1 0 1.54zm0-4.623a.771.771 0 1 1 0 1.541H7.86a.771.771 0 1 1 0-1.54h9.263z"/>
        </g>
    </g>
</svg>
