<?xml version="1.0" encoding="UTF-8"?>
<svg width="41px" height="41px" viewBox="0 0 41 41" version="1.1" xmlns="http://www.w3.org/2000/svg" xmlns:xlink="http://www.w3.org/1999/xlink">
    <!-- Generator: Sketch 51.3 (57544) - http://www.bohemiancoding.com/sketch -->
    <title>Artboard 2 Copy</title>
    <desc>Created with Sketch.</desc>
    <defs></defs>
    <g id="Artboard-2-Copy" stroke="none" stroke-width="1" fill="none" fill-rule="evenodd">
        <path d="M34.6638016,12.3609884 C30.2471344,12.3609884 26.6667183,8.84074734 26.6667183,4.49830987 L26.6667183,3.23777415 C26.6629017,2.89602263 26.8711199,2.58642605 27.1924543,2.45606501 C27.5137887,2.32570396 27.8834747,2.40085258 28.1258849,2.64580987 L36.5479683,10.9333099 C36.7919494,11.172357 36.8650819,11.5325392 36.7331553,11.8453678 C36.6012286,12.1581964 36.2903264,12.3618209 35.9458849,12.3609884 L34.6638016,12.3609884 Z M23.8333333,4.28017857 C23.8333333,10.1611236 28.682276,14.9285714 34.66375,14.9285714 C36.50631,14.9285714 38,16.3971574 38,18.20875 L38,32.1373214 C38,36.4797589 34.4195838,40 30.0029167,40 L11.9970833,40 C7.58041617,40 4,36.4797589 4,32.1373214 L4,8.86267857 C4,4.5202411 7.58041617,1 11.9970833,1 L20.4970833,1 C22.3396433,1 23.8333333,2.46858597 23.8333333,4.28017857 Z M21.017148,16.0857521 C20.9524688,16.4908702 21.0726507,16.9034259 21.3456589,17.2134508 C21.6186671,17.5234757 22.0167565,17.6994628 22.4338147,17.6945021 L28.2350647,17.6945021 C28.3778237,17.6941415 28.5011736,17.5963422 28.5317823,17.4592461 C28.562391,17.3221501 28.4920447,17.1825467 28.3625647,17.1234307 C27.5109512,16.7893913 26.742645,16.2786693 26.1100647,15.6261093 C25.680099,15.173308 25.0754645,14.920341 24.4454814,14.9296807 L22.5117314,14.9296807 C21.7924505,14.9020919 21.1591755,15.3919349 21.017148,16.0857521 Z M30.9166667,28.8571429 C31.6990701,28.8571429 32.3333333,28.2335395 32.3333333,27.4642857 C32.3333333,26.695032 31.6990701,26.0714286 30.9166667,26.0714286 L11.0833333,26.0714286 C10.3009299,26.0714286 9.66666667,26.695032 9.66666667,27.4642857 C9.66666667,28.2335395 10.3009299,28.8571429 11.0833333,28.8571429 L30.9166667,28.8571429 Z M30.9166667,23.2857143 C31.6990701,23.2857143 32.3333333,22.6621109 32.3333333,21.8928571 C32.3333333,21.1236034 31.6990701,20.5 30.9166667,20.5 L22.4166667,20.5 C21.6342633,20.5 21,21.1236034 21,21.8928571 C21,22.6621109 21.6342633,23.2857143 22.4166667,23.2857143 L30.9166667,23.2857143 Z M20.2916667,34.4285714 C21.0740701,34.4285714 21.7083333,33.804968 21.7083333,33.0357143 C21.7083333,32.2664605 21.0740701,31.6428571 20.2916667,31.6428571 L11.7916667,31.6428571 C11.0092633,31.6428571 10.375,32.2664605 10.375,33.0357143 C10.375,33.804968 11.0092633,34.4285714 11.7916667,34.4285714 L20.2916667,34.4285714 Z M15.6948104,21.0277623 C16.1543158,21.0277623 16.5596453,21.3285881 16.6927345,21.7683977 C16.8258238,22.2082074 17.2311532,22.5090332 17.6906587,22.5090332 L18.3923195,22.5090332 C18.5162699,22.5090332 18.6391732,22.4863424 18.7549522,22.4420826 C19.2788557,22.2418061 19.5412072,21.6547423 19.3409307,21.1308388 L16.9536138,14.8858547 C16.6427845,14.0727561 15.8625407,13.5357143 14.9920556,13.5357143 L14.807476,13.5357143 C13.9369909,13.5357143 13.1567471,14.0727561 12.8459178,14.8858547 L10.4463744,21.1628222 C10.4031418,21.2759144 10.3809775,21.3959655 10.3809775,21.5170394 C10.3809775,22.0649024 10.8251083,22.5090332 11.3729714,22.5090332 L12.0412873,22.5090332 C12.4998959,22.5090332 12.9040663,22.2078578 13.0352028,21.7683977 C13.1663393,21.3289377 13.5705097,21.0277623 14.0291183,21.0277623 L15.6948104,21.0277623 Z M15.909399,17.8646882 C15.9313035,17.9334164 15.9424532,18.0051173 15.9424532,18.0772517 C15.9424532,18.463851 15.6290525,18.7772517 15.2424532,18.7772517 L14.6187088,18.7772517 C14.5469939,18.7772517 14.4757048,18.7662313 14.4073375,18.7445763 C14.0387843,18.6278392 13.834647,18.2344336 13.9513842,17.8658804 L14.2951313,16.7806294 C14.3603765,16.5746423 14.521573,16.4131575 14.7274432,16.3475443 C15.077604,16.2359439 15.4519353,16.4293354 15.5635356,16.7794961 L15.909399,17.8646882 Z M26.6011148,30.9464286 C26.2306918,30.9464286 25.9304045,31.2467158 25.9304045,31.6171388 C25.9304045,31.9875619 26.2306918,32.2878491 26.6011148,32.2878491 L29.1298725,32.2878491 L26.0405599,35.4597375 C25.7491313,35.7589559 25.5860476,36.1601365 25.5860476,36.5778234 C25.5860476,36.9375953 25.8777004,37.229248 26.2374723,37.229248 L30.9743487,37.229248 C31.3471386,37.229248 31.6493446,36.9270421 31.6493446,36.5542521 C31.6493446,36.1814621 31.3471386,35.8792561 30.9743487,35.8792561 L27.9355207,35.8792561 L31.0804057,32.6518091 C31.3613493,32.3634899 31.5185762,31.9768453 31.5185762,31.574282 C31.5185762,31.2275281 31.2374766,30.9464286 30.8907228,30.9464286 L26.6011148,30.9464286 Z" id="Mask" fill="#007EFF" fill-rule="nonzero"></path>
    </g>
</svg>