<svg xmlns="http://www.w3.org/2000/svg" width="20" height="20" viewBox="0 0 20 20">
    <path fill="#FFF" fill-rule="evenodd" d="M17.071 2.929A9.935 9.935 0 0 1 20 10a9.935 9.935 0 0 1-2.929 7.071A9.935 9.935 0 0 1 10 20a9.935 9.935 0 0 1-7.071-2.929A9.935 9.935 0 0 1 0 10a9.935 9.935 0 0 1 2.929-7.071A9.935 9.935 0 0 1 10 0a9.935 9.935 0 0 1 7.071 2.929zm-.884 13.258a8.689 8.689 0 0 0 2.388-4.435c-.263.388-.515.531-.67-.336-.161-1.414-1.46-.51-2.276-1.013-.86.58-2.791-1.126-2.463.798.506.867 2.734-1.161 1.624.674-.708 1.282-2.59 4.12-2.346 5.591.03 2.144-2.19.447-2.955-.264-.515-1.424-.176-3.913-1.522-4.61-1.46-.064-2.715-.197-3.28-1.83-.342-1.169.362-2.908 1.614-3.177 1.833-1.152 2.488 1.349 4.207 1.395.534-.558 1.988-.736 2.109-1.362-1.128-.199 1.43-.948-.108-1.375-.849.1-1.396.88-.945 1.543-1.645.383-1.698-2.381-3.28-1.51-.04 1.38-2.582.448-.879.168.585-.256-.954-.996-.122-.862.408-.022 1.783-.504 1.411-.828.766-.475 1.41 1.139 2.16-.037.54-.903-.228-1.07-.906-.612-.383-.428.675-1.353 1.608-1.753.31-.133.608-.205.835-.185.47.543 1.339.637 1.384-.065A8.717 8.717 0 0 0 10 1.25c-1.907 0-3.72.606-5.221 1.726.403.185.632.415.244.71-.302.899-1.527 2.106-2.602 1.935a8.654 8.654 0 0 0-1.083 3.136c.9.297 1.108.887.914 1.085-.459.4-.74.967-.886 1.588a8.685 8.685 0 0 0 2.447 4.757A8.693 8.693 0 0 0 10 18.75c2.337 0 4.534-.91 6.187-2.563z"/>
</svg>
